<svg version="1.1" id="Layer_1" xmlns="http://www.w3.org/2000/svg" xmlns:xlink="http://www.w3.org/1999/xlink" x="0px" y="0px"
	 width="100%" viewBox="0 0 980 630" enable-background="new 0 0 980 630" xml:space="preserve">
<path fill="#FEFEFE" opacity="1.000000" stroke="none" 
	d="
M736.000000,631.000000 
	C490.666748,631.000000 245.833481,631.000000 1.000164,631.000000 
	C1.000109,421.000122 1.000109,211.000275 1.000055,1.000305 
	C327.666443,1.000203 654.332886,1.000203 980.999512,1.000102 
	C980.999634,210.999695 980.999634,420.999390 980.999817,630.999512 
	C899.500000,631.000000 818.000000,631.000000 736.000000,631.000000 
M294.258118,308.146057 
	C293.852020,309.099121 293.445923,310.052185 292.813354,311.260712 
	C292.813354,311.260712 292.780945,311.600586 292.291962,311.909363 
	C292.203766,312.273224 292.115570,312.637054 291.789459,313.231964 
	C291.789459,313.231964 291.738922,313.559784 291.158386,313.929932 
	C289.701965,316.914459 288.245575,319.899017 286.932007,322.935730 
	C286.932007,322.935730 286.822021,322.830688 286.257111,323.185150 
	C285.516174,324.793182 284.775238,326.401245 283.805237,328.258759 
	C283.805237,328.258759 283.760803,328.594513 283.252563,328.890320 
	C283.155457,329.258606 283.058350,329.626862 282.742798,330.200897 
	C282.742798,330.200897 282.708496,330.499023 282.142456,330.900574 
	C281.027435,333.226929 279.912384,335.553253 278.954437,337.946350 
	C278.954437,337.946350 278.824371,337.835846 278.282990,338.162354 
	C277.876495,339.110657 277.470032,340.058929 276.837372,341.283051 
	C276.837372,341.283051 276.804565,341.638214 276.320160,341.935455 
	C276.230408,342.291382 276.140656,342.647308 275.811493,343.255249 
	C275.811493,343.255249 275.758484,343.598816 275.256165,343.896179 
	C275.164276,344.262939 275.072388,344.629730 274.760284,345.215790 
	C274.760284,345.215790 274.726990,345.524811 274.153259,345.922363 
	C272.359772,349.325958 270.566284,352.729553 268.692749,356.285034 
	C272.940826,357.708160 274.741730,355.861542 276.444824,352.739349 
	C276.698456,352.297821 276.952057,351.856323 277.803528,351.145844 
	C278.533508,350.095551 279.263519,349.045227 280.435303,347.724335 
	C280.695679,347.285156 280.956085,346.845978 281.748657,346.154114 
	C281.915588,345.808228 282.082520,345.462341 282.792633,344.748169 
	C313.387756,306.632477 343.962952,268.500763 374.586487,230.407913 
	C389.676056,211.637924 404.855011,192.939789 420.367157,174.767105 
	C431.367249,195.327881 442.367310,215.888657 453.685272,237.043655 
	C433.456940,237.043655 414.306854,236.939606 395.161285,237.184036 
	C392.933655,237.212479 390.094391,238.622498 388.627014,240.328232 
	C382.442932,247.516678 376.668701,255.057877 370.750397,262.474701 
	C368.117340,265.774445 365.498077,269.085236 362.310272,273.098938 
	C365.000122,273.098938 366.627136,273.098907 368.254150,273.098907 
	C396.736389,273.098999 425.218628,273.072845 453.700806,273.119263 
	C460.161469,273.129791 467.711304,271.386047 472.761810,274.128815 
	C477.390717,276.642639 479.321472,284.124542 482.442749,289.416412 
	C482.527161,289.559509 482.669312,289.678558 482.719635,289.830292 
	C483.591888,292.462036 485.421509,293.048370 488.099426,293.023132 
	C502.422516,292.888153 516.747559,292.968903 531.071899,292.940887 
	C532.106445,292.938873 533.140381,292.664642 534.400940,292.484680 
	C534.020935,291.433807 533.874634,290.785614 533.570435,290.222809 
	C506.297211,239.769119 479.017242,189.319061 451.690063,138.894592 
	C451.118530,137.839935 449.991638,137.086212 448.187439,135.964233 
	C429.030518,135.936157 409.872803,135.990402 390.717407,135.804245 
	C387.264740,135.770721 385.458008,136.835663 383.810059,139.960236 
	C366.265106,173.226028 348.505341,206.378448 330.861359,239.592163 
	C320.091705,259.865479 309.420746,280.191162 298.138031,300.894958 
	C297.016357,303.220490 295.894653,305.546021 294.931946,307.932190 
	C294.931946,307.932190 294.803009,307.821136 294.258118,308.146057 
M509.265015,529.551025 
	C508.774048,529.184265 508.278076,528.501953 507.792999,528.509583 
	C506.312592,528.532959 504.389557,528.341980 503.505066,529.165100 
	C502.840637,529.783569 503.008179,532.274719 503.741516,533.120178 
	C504.378998,533.855164 506.331818,533.554504 507.697235,533.512512 
	C508.487183,533.488220 509.264984,533.070190 510.358185,533.559875 
	C511.745270,533.651367 513.132385,533.742859 515.230835,533.881287 
	C514.856812,531.676025 514.579529,530.041260 514.302185,528.406433 
	C512.883057,528.654480 511.463898,528.902527 509.265015,529.551025 
M660.032288,287.468079 
	C661.820740,289.865387 663.609192,292.262726 665.720947,295.093353 
	C689.696960,262.431305 713.493958,230.013123 737.290955,197.594940 
	C737.674133,197.760193 738.057251,197.925446 738.440430,198.090698 
	C738.440430,229.653580 738.440430,261.216461 738.440430,292.698547 
	C753.364502,292.698547 767.801392,292.698547 782.432739,292.698547 
	C782.432739,240.381912 782.432739,188.331039 782.432739,135.898407 
	C764.505554,135.898407 746.871155,135.830414 729.239807,136.029297 
	C727.850403,136.044998 726.134155,137.658035 725.158081,138.967285 
	C716.700684,150.311371 708.382874,161.759476 700.014160,173.169724 
	C688.599426,188.732941 677.176453,204.290146 665.583679,220.086151 
	C664.258118,218.328522 663.146973,216.881439 662.063110,215.414154 
	C643.366150,190.103607 624.705200,164.766281 605.902649,139.534424 
	C604.690430,137.907745 602.407654,136.081802 600.596497,136.053787 
	C583.773193,135.793564 566.943970,135.902237 550.116577,135.935287 
	C549.519958,135.936462 548.924011,136.264511 548.379517,136.424973 
	C548.379517,188.598465 548.379517,240.517624 548.379517,292.559204 
	C563.124146,292.559204 577.630127,292.559204 592.566711,292.559204 
	C592.566711,260.750580 592.566711,229.343750 592.566711,197.936935 
	C592.885071,197.809372 593.203491,197.681824 593.521851,197.554260 
	C615.551086,227.334000 637.580383,257.113739 660.032288,287.468079 
M235.632309,246.995895 
	C237.100677,247.782990 238.569046,248.570068 240.037399,249.357162 
	C239.901077,249.768845 239.764755,250.180511 239.628433,250.592194 
	C201.915436,250.592194 164.202438,250.592194 126.504227,250.592194 
	C126.504227,264.950531 126.504227,278.721222 126.504227,292.706848 
	C127.544968,292.806122 128.341171,292.948395 129.137421,292.948578 
	C178.791122,292.960236 228.444901,292.989777 278.098083,292.830536 
	C279.724548,292.825317 282.042084,291.271484 282.859009,289.789795 
	C290.243805,276.395966 297.373688,262.861420 304.558899,249.357834 
	C306.624023,245.476837 308.626404,241.562485 310.777802,237.432556 
	C269.559113,218.022522 228.966446,198.907303 188.373779,179.792068 
	C188.490112,179.415665 188.606445,179.039246 188.722778,178.662842 
	C228.817902,178.662842 268.913025,178.662842 309.154663,178.662842 
	C309.154663,164.321609 309.154663,150.380707 309.154663,135.894699 
	C307.179138,135.894699 305.395294,135.894714 303.611450,135.894714 
	C261.622406,135.894653 219.633362,135.887695 177.644318,135.901413 
	C170.814117,135.903641 163.972763,135.766388 157.156097,136.096741 
	C143.013550,136.782181 130.717422,146.807236 126.490128,160.760452 
	C122.232056,174.815231 126.427338,188.438248 138.200195,197.197723 
	C142.709656,200.552917 147.669846,203.410721 152.707413,205.929703 
	C180.068451,219.611328 207.517868,233.116211 235.632309,246.995895 
M830.499207,292.966248 
	C836.411316,292.966248 842.323425,292.966248 848.159485,292.966248 
	C848.159485,240.208328 848.159485,188.173386 848.159485,136.150696 
	C833.317566,136.150696 818.886963,136.150696 804.324463,136.150696 
	C804.324463,188.468460 804.324463,240.524368 804.324463,292.965881 
	C812.903381,292.965881 821.201416,292.965881 830.499207,292.966248 
M704.310852,465.198181 
	C704.310852,466.918213 704.310852,468.638214 704.310852,470.358246 
	C702.747192,469.581207 702.153198,468.659851 701.586975,467.721741 
	C693.678223,454.616699 685.519836,441.652496 677.995911,428.329987 
	C675.105103,423.211243 671.699219,421.801422 666.391235,423.317444 
	C666.391235,444.680939 666.391235,465.901978 666.391235,487.259216 
	C669.101318,487.259216 671.493652,487.259216 674.561035,487.259216 
	C674.561035,471.638947 674.561035,456.354004 674.561035,441.069061 
	C676.478943,442.393555 677.487854,443.847290 678.407166,445.355591 
	C685.853394,457.572357 693.545410,469.650757 700.586731,482.097076 
	C703.359314,486.997925 706.547607,488.711029 711.932373,487.128571 
	C711.932373,465.830475 711.932373,444.478241 711.932373,423.128540 
	C709.306213,423.128540 707.041138,423.128540 704.312378,423.128540 
	C704.312378,437.017914 704.312378,450.644196 704.310852,465.198181 
M442.423523,72.923515 
	C428.406464,86.955544 414.389404,100.987572 399.876892,115.515610 
	C419.285309,115.515610 437.501862,115.515610 455.570801,115.515610 
	C455.570801,96.951836 455.570801,78.805092 455.570801,59.322685 
	C450.772858,64.292580 446.848114,68.357964 442.423523,72.923515 
M672.220642,335.601715 
	C672.220642,348.906067 672.220642,362.210449 672.220642,375.514801 
	C662.603638,361.385864 653.751465,347.330566 645.578674,332.890747 
	C642.629333,327.679626 639.129089,327.209473 634.340454,328.441345 
	C634.340454,349.908752 634.340454,371.134094 634.340454,392.444336 
	C637.043213,392.444336 639.429688,392.444336 642.330444,392.444336 
	C642.330444,376.591248 642.330444,361.087158 642.330444,344.340820 
	C643.893127,346.631256 644.762756,347.790649 645.512695,349.022858 
	C653.292114,361.804108 661.302856,374.454773 668.689880,387.459473 
	C671.505371,392.416046 674.761169,393.927521 680.138367,392.249420 
	C680.138367,370.942200 680.138367,349.603333 680.138367,328.339325 
	C677.314819,328.339325 674.921326,328.339325 672.221069,328.339325 
	C672.221069,330.682037 672.221069,332.657990 672.220642,335.601715 
M560.516357,422.863129 
	C556.758179,422.863129 553.000061,422.863129 549.317688,422.863129 
	C549.317688,444.800812 549.317688,466.020142 549.317688,487.201752 
	C552.241760,487.201752 554.802307,487.201752 557.916992,487.201752 
	C557.916992,478.070129 557.916992,469.329956 557.916992,460.327576 
	C561.302429,460.327576 564.155029,460.584595 566.941711,460.265503 
	C570.822632,459.821167 572.959900,461.169342 574.502930,464.876709 
	C576.925293,470.696869 580.017151,476.237427 582.801819,481.907990 
	C585.960266,488.339600 587.530090,488.983337 594.952332,486.621704 
	C590.416138,477.594116 585.897522,468.601562 581.382690,459.616577 
	C582.139954,459.093811 582.525391,458.775085 582.955994,458.538269 
	C591.883972,453.627808 595.427490,445.955536 593.111511,436.526062 
	C591.038879,428.087219 584.000549,423.031799 574.004395,422.874908 
	C569.840576,422.809540 565.674805,422.863403 560.516357,422.863129 
M487.275574,392.802277 
	C501.245941,392.130646 508.037903,386.541077 509.295227,372.762299 
	C510.134827,363.561676 509.724823,354.144745 508.851501,344.921448 
	C508.110962,337.100433 503.632721,330.483337 495.586853,329.286407 
	C485.385345,327.768829 474.918335,328.035980 464.587646,327.534546 
	C464.587646,349.950836 464.587646,371.170349 464.587646,392.802765 
	C472.067108,392.802765 479.196533,392.802765 487.275574,392.802277 
M839.798645,331.547333 
	C828.084167,324.892059 815.496033,329.325989 803.338989,327.788208 
	C803.338989,349.888763 803.338989,371.103607 803.338989,392.560730 
	C812.407166,392.560730 821.238647,393.203278 829.936218,392.398956 
	C840.937744,391.381561 847.137085,384.963623 847.970154,373.916901 
	C848.653992,364.849823 848.383301,355.675903 847.978088,346.574158 
	C847.719604,340.767914 845.172729,335.677277 839.798645,331.547333 
M650.231506,475.622101 
	C654.163208,464.459442 653.093628,452.970825 652.020081,441.595245 
	C650.866943,429.376862 642.198914,422.013977 629.819824,421.870728 
	C616.259949,421.713806 607.379272,428.308838 606.074707,440.864685 
	C605.137024,449.888947 605.147278,459.125427 605.860657,468.178528 
	C606.737793,479.310638 613.355286,486.307037 622.985779,488.090973 
	C635.405701,490.391602 644.358154,486.491943 650.231506,475.622101 
M458.834442,530.554565 
	C458.834442,527.447937 458.834442,524.341309 458.834442,520.881104 
	C456.749207,520.985535 455.352966,521.055420 453.756836,521.135376 
	C453.756836,530.681213 453.857941,539.838989 453.651245,548.989868 
	C453.619110,550.412903 452.481415,552.664917 451.341980,553.062073 
	C446.217957,554.848511 443.488922,552.653015 443.363068,547.198608 
	C443.332397,545.869568 443.270630,544.533203 443.097137,543.216797 
	C442.341827,537.486694 438.821991,534.498901 432.893646,534.494751 
	C427.157684,534.490723 423.683380,537.304138 422.837830,542.794678 
	C422.562439,544.582703 422.522461,546.418091 422.507721,548.232849 
	C422.479889,551.667236 421.063171,553.484253 417.380829,553.347046 
	C413.835999,553.214783 411.095367,552.552124 411.262787,548.079834 
	C411.416779,543.966309 411.295532,539.842529 411.295532,535.622192 
	C404.455109,534.398071 406.798187,539.295715 406.698700,541.806274 
	C406.203064,554.310669 409.069855,553.519287 394.832764,553.175964 
	C394.592499,553.170166 394.359985,552.842041 394.125427,552.662231 
	C397.628174,545.033447 397.439850,540.044189 393.526978,536.804626 
	C389.974670,533.863464 382.190613,533.778442 378.484253,536.640198 
	C374.320587,539.855042 374.116486,544.450073 377.763458,552.866028 
	C367.885101,554.294983 367.073608,553.651794 366.801575,544.177551 
	C366.622772,537.951172 364.427948,535.339905 358.291016,534.666016 
	C355.368317,534.344971 352.381165,534.610840 349.279907,534.610840 
	C349.279907,536.133606 349.279907,537.469849 349.279907,539.008606 
	C351.475952,539.008606 353.296906,539.019348 355.117737,539.006470 
	C359.655212,538.974426 361.726898,541.155457 361.765106,545.753845 
	C361.823334,552.763855 361.439453,553.274292 354.131958,553.316528 
	C352.632599,553.325195 351.129364,553.390198 349.634552,553.308289 
	C346.001129,553.109314 345.258392,554.641479 347.179810,558.689697 
	C352.848145,557.920166 358.673492,557.114014 364.505249,556.356995 
	C365.220306,556.264160 365.980865,556.367798 366.700714,556.493164 
	C369.432281,556.968750 372.150940,557.870361 374.883423,557.905090 
	C378.838226,557.955383 382.844452,556.870850 386.750946,557.198303 
	C394.499420,557.847839 402.192780,559.358337 409.799133,556.341125 
	C410.363678,556.117126 411.235229,556.828064 411.973724,556.856873 
	C420.275574,557.180725 428.579346,557.457336 436.882935,557.735474 
	C437.033020,557.740540 437.208496,557.637695 437.337006,557.539307 
	C439.411011,555.951721 441.265594,556.501831 443.657684,557.335449 
	C453.974487,560.930908 458.823486,557.335022 458.833771,546.531128 
	C458.838501,541.533142 458.834534,536.535217 458.834442,530.554565 
M286.731476,480.299316 
	C286.731476,482.584991 286.731476,484.870636 286.731476,487.259338 
	C300.673279,487.259338 314.057709,487.259338 327.400085,487.259338 
	C328.287262,479.246399 328.287262,479.246033 320.581024,479.245667 
	C312.300354,479.245239 304.019714,479.245575 295.563934,479.245575 
	C295.563934,472.240601 295.563934,465.828217 295.563934,458.943115 
	C304.713501,458.943115 313.635040,458.943115 322.778320,458.943115 
	C322.778320,456.044678 322.778320,453.618744 322.778320,450.627563 
	C313.719208,450.627563 304.811462,450.627563 295.624573,450.627563 
	C295.624573,443.849823 295.624573,437.635956 295.624573,430.783722 
	C306.429962,430.783722 316.970428,430.783722 327.489197,430.783722 
	C327.489197,427.882782 327.489197,425.623169 327.489197,423.163940 
	C313.818604,423.163940 300.448059,423.163940 286.732574,423.163940 
	C286.732574,442.091370 286.732574,460.717926 286.731476,480.299316 
M391.018555,456.500000 
	C391.018555,466.742828 391.018555,476.985657 391.018555,487.165070 
	C405.089020,487.165070 418.445740,487.165070 431.805603,487.165070 
	C431.805603,484.437195 431.805603,482.157806 431.805603,479.152252 
	C421.062012,479.152252 410.529541,479.152252 400.186493,479.152252 
	C400.186493,472.013611 400.186493,465.608765 400.186493,458.871643 
	C409.302429,458.871643 418.068634,458.871643 427.073181,458.871643 
	C427.073181,456.098999 427.073181,453.674957 427.073181,450.680420 
	C417.993591,450.680420 409.110382,450.680420 400.118896,450.680420 
	C400.118896,443.869049 400.118896,437.630432 400.118896,430.914429 
	C410.805511,430.914429 421.214752,430.914429 431.744080,430.914429 
	C431.744080,428.035767 431.744080,425.642609 431.744080,423.228546 
	C418.071930,423.228546 404.698120,423.228546 391.018494,423.228546 
	C391.018494,434.230408 391.018494,444.865204 391.018555,456.500000 
M784.280762,392.790558 
	C786.213013,392.790558 788.145264,392.790558 790.255249,392.790558 
	C790.255249,389.752930 790.255249,387.361328 790.255249,384.313965 
	C779.549927,384.313965 769.166016,384.313965 758.809692,384.313965 
	C758.809692,377.241119 758.809692,370.834412 758.809692,363.866150 
	C768.029724,363.866150 776.931213,363.866150 785.815613,363.866150 
	C785.815613,361.019775 785.815613,358.745605 785.815613,355.914429 
	C776.679810,355.914429 767.772705,355.914429 758.747803,355.914429 
	C758.747803,349.091400 758.747803,342.831787 758.747803,336.001282 
	C769.395752,336.001282 779.789490,336.001282 790.234375,336.001282 
	C790.234375,333.012787 790.234375,330.613464 790.234375,328.294159 
	C776.626709,328.294159 763.378174,328.294159 750.167725,328.294159 
	C750.167725,349.858215 750.167725,371.101471 750.167725,392.790955 
	C761.417053,392.790955 772.374329,392.790955 784.280762,392.790558 
M815.157104,456.503296 
	C820.666870,457.698517 826.201843,458.790009 831.679688,460.116821 
	C837.677002,461.569397 840.757935,465.098694 840.577698,469.927429 
	C840.382141,475.166748 836.558411,479.158783 830.614685,480.013672 
	C828.339478,480.340912 825.829956,480.718872 823.707947,480.104309 
	C818.210144,478.512115 812.868347,476.381104 806.868225,474.253876 
	C805.721130,475.647064 804.090454,477.627563 802.064636,480.088013 
	C812.565491,488.112762 823.628052,490.649384 835.756287,487.199829 
	C845.193604,484.515625 849.662842,477.797974 849.298340,468.189453 
	C848.956177,459.170135 844.711914,454.258514 834.811523,451.804077 
	C830.787109,450.806366 826.603455,450.439911 822.593933,449.395599 
	C815.980286,447.673004 813.220764,444.013611 813.952454,438.558899 
	C814.648132,433.373535 818.841125,429.624084 825.108093,430.181030 
	C830.910339,430.696686 836.586060,432.636078 843.087097,434.124725 
	C843.833374,432.876862 845.138977,430.693756 846.616455,428.223145 
	C837.562500,422.032410 828.205322,420.333282 818.201782,422.899994 
	C810.704712,424.823608 806.198547,429.925934 805.136353,437.616699 
	C803.904053,446.538269 806.732910,451.862885 815.157104,456.503296 
M602.056091,329.137177 
	C596.057190,326.410431 593.825806,327.245697 591.762451,333.005463 
	C586.829529,346.775970 581.893860,360.545502 576.974243,374.320740 
	C574.867676,380.219330 572.798096,386.131195 570.143127,393.646332 
	C574.249207,391.444763 578.413940,395.475342 580.358398,389.871552 
	C581.757019,385.841064 582.487854,380.262665 585.423096,378.432648 
	C588.693726,376.393494 594.123230,377.815338 598.612976,377.734802 
	C599.279236,377.722839 599.945923,377.733704 600.612366,377.733765 
	C610.385254,377.734833 610.385254,377.734833 613.572937,386.809540 
	C616.021301,393.779510 616.548035,394.044800 624.283142,391.875092 
	C616.972046,371.199005 609.669678,350.547791 602.056091,329.137177 
M434.097656,334.293365 
	C433.361938,332.271851 432.626251,330.250366 431.926758,328.328400 
	C423.938171,327.472534 423.918091,327.465271 421.409454,334.396698 
	C418.298615,342.991943 415.207550,351.594421 412.140228,360.205292 
	C408.364410,370.805176 404.621887,381.416901 400.617828,392.721222 
	C404.496948,392.030518 409.450989,395.324951 410.276459,389.907227 
	C412.069519,378.138641 419.226593,376.078766 429.202454,377.720123 
	C429.689026,377.800140 430.200256,377.730164 430.700012,377.730164 
	C440.605560,377.730286 440.605591,377.730255 443.868713,387.167480 
	C446.147064,393.756622 446.739685,394.040100 454.423004,391.826019 
	C447.722534,372.883514 441.031281,353.967072 434.097656,334.293365 
M730.852295,344.026917 
	C733.253113,343.100830 735.653870,342.174744 738.020264,341.261963 
	C734.327148,331.054199 726.923340,326.596863 715.039490,326.979218 
	C705.215576,327.295319 696.748047,332.912445 695.468567,342.972137 
	C694.019043,354.369141 694.023376,366.228607 695.447632,377.630646 
	C696.712952,387.760101 705.225220,393.371307 715.450684,393.790405 
	C726.503662,394.243408 734.386169,389.394348 737.949890,379.561218 
	C735.699036,378.467773 733.394348,377.348206 730.991211,376.180786 
	C730.385559,376.988953 729.977295,377.487671 729.618347,378.019745 
	C725.062561,384.773285 719.875549,386.900238 712.585876,384.993866 
	C706.992065,383.530945 703.252075,378.260101 703.023743,370.737274 
	C702.801819,363.422546 702.723755,356.080414 703.098572,348.776794 
	C703.495544,341.041870 708.477112,335.774384 715.198425,335.119934 
	C722.210815,334.437164 726.975098,337.687225 730.852295,344.026917 
M469.747009,479.912323 
	C458.130341,481.481079 452.000854,477.045959 451.361572,465.483398 
	C450.904541,457.217560 451.301727,448.841064 452.109558,440.591461 
	C452.633270,435.243042 456.309540,431.494049 461.730011,430.340546 
	C467.480652,429.116791 472.677612,430.307037 476.457550,435.295746 
	C477.427307,436.575592 478.351318,437.890076 479.424835,439.365173 
	C481.899078,438.154297 484.077881,437.088013 486.387177,435.957855 
	C485.992859,434.739441 485.845367,433.925293 485.483887,433.221008 
	C481.057648,424.597015 471.996613,420.504639 460.850647,422.059509 
	C451.645813,423.343597 444.224579,429.871002 443.250122,439.852814 
	C442.255188,450.043976 441.836578,460.587097 443.320892,470.658478 
	C445.839478,487.747559 467.021454,494.864746 480.267426,483.646851 
	C482.913269,481.406097 484.670288,478.115814 487.191040,474.851166 
	C483.888214,473.248901 481.590057,472.134033 480.202728,471.461029 
	C476.509033,474.620148 473.530762,477.167419 469.747009,479.912323 
M775.970459,430.092987 
	C779.981445,432.697235 783.992371,435.301453 788.861755,438.463043 
	C795.416626,436.446442 795.961487,434.845856 790.508484,428.862091 
	C783.941467,421.655914 775.557495,420.653168 766.637024,422.592743 
	C757.570068,424.564148 752.230347,431.038361 751.313782,439.643219 
	C750.230225,449.815918 750.237000,460.269073 751.257202,470.451782 
	C752.143005,479.293610 757.549255,485.943298 766.794556,487.898987 
	C776.308899,489.911591 785.106628,488.493164 791.529602,480.220673 
	C792.773621,478.618469 793.498413,476.613098 794.593262,474.547333 
	C791.801697,473.203217 789.622437,472.153900 787.343811,471.056763 
	C786.667847,472.024902 786.205566,472.696838 785.733459,473.361755 
	C781.249207,479.677124 776.516296,481.596497 769.405457,479.986115 
	C764.018616,478.766144 760.120728,474.319946 759.584717,467.016388 
	C759.014404,459.244690 758.863281,451.348785 759.564148,443.600739 
	C760.456055,433.741150 765.228088,430.051849 775.970459,430.092987 
M537.805969,390.814423 
	C541.424255,394.394684 545.542419,393.736115 547.049255,389.236298 
	C552.478577,373.022430 557.847229,356.788239 563.240356,340.562195 
	C564.575684,336.544830 565.916687,332.529358 567.295227,328.392242 
	C558.667847,327.453796 558.640991,327.445251 556.293518,334.816345 
	C552.767822,345.886993 549.302002,356.976654 545.770752,368.045502 
	C544.819336,371.027771 543.723999,373.964081 542.258545,378.174530 
	C537.138977,362.670044 532.471252,348.514587 527.789734,334.363678 
	C525.375061,327.065002 525.048767,326.896851 516.953430,328.715302 
	C523.811035,349.187286 530.657837,369.627045 537.805969,390.814423 
M669.229248,546.406494 
	C669.187622,553.305359 668.481201,553.874512 662.491089,553.258423 
	C658.163269,552.813354 658.253174,550.011108 658.239746,546.833984 
	C658.204224,538.439270 656.209473,536.275696 647.971497,535.277405 
	C647.261230,535.191284 646.560974,535.023010 645.294250,534.789246 
	C648.503906,530.853210 651.282532,527.445740 654.265198,523.788086 
	C652.750671,522.699097 651.625977,521.890320 650.085022,520.782288 
	C646.466309,527.619141 638.657410,531.197205 637.566650,540.103394 
	C641.591980,540.103394 644.908752,539.870117 648.180420,540.155090 
	C653.834229,540.647583 652.834473,545.040161 653.047302,548.820129 
	C653.261780,552.630249 651.010559,553.285461 648.036011,553.290771 
	C643.542053,553.298828 639.048035,553.283386 634.554077,553.273987 
	C630.986145,553.266479 628.924683,551.901550 629.114319,547.904785 
	C629.308533,543.808838 629.157349,539.696533 629.157349,535.714233 
	C625.610046,534.766174 624.116333,535.547119 624.319397,538.876770 
	C624.501404,541.861938 624.232178,544.873657 624.393372,547.861267 
	C624.581909,551.354797 623.942932,553.645508 619.603455,553.372253 
	C615.631592,553.122070 612.143250,553.007751 612.743958,547.477478 
	C613.047791,544.680847 612.695435,541.819458 612.817993,538.995056 
	C612.996704,534.875793 611.028992,534.666809 607.709778,535.964600 
	C607.709778,543.123657 607.591492,550.099854 607.754395,557.069458 
	C607.851196,561.212219 607.366089,564.568787 602.047974,564.096497 
	C602.047974,565.738586 602.047974,567.008118 602.047974,569.084778 
	C604.783447,568.342773 607.927612,568.432861 609.211731,566.931824 
	C611.416870,564.354187 612.461121,560.783447 614.032959,557.546570 
	C621.061157,559.550964 628.642883,556.344727 636.460205,557.649658 
	C642.856140,558.717468 649.766418,556.677612 656.453796,556.072876 
	C657.029480,556.020752 657.632935,556.479492 658.242615,556.565369 
	C661.635620,557.043030 665.028076,557.772522 668.433228,557.847290 
	C671.943726,557.924438 674.023865,555.818115 674.044800,552.211060 
	C674.104614,541.920898 674.065796,531.630127 674.065796,521.210388 
	C672.336182,521.210388 670.976746,521.210388 669.229248,521.210388 
	C669.229248,529.501648 669.229248,537.463440 669.229248,546.406494 
M520.078430,483.241699 
	C520.078430,465.978241 520.078430,448.714813 520.078430,430.951904 
	C526.596924,430.951904 532.665283,430.951904 538.807617,430.951904 
	C538.807617,428.039124 538.807617,425.637604 538.807617,423.231964 
	C523.166260,423.231964 507.797211,423.231964 492.537048,423.231964 
	C492.537048,426.001923 492.537048,428.380707 492.537048,431.125916 
	C498.872040,431.125916 504.806396,431.125916 511.295959,431.125916 
	C511.295959,450.022278 511.295959,468.548645 511.295959,487.762390 
	C514.666199,486.277832 519.355774,490.858978 520.078430,483.241699 
M362.499115,487.612915 
	C368.588531,487.612915 374.677948,487.612915 380.619080,487.612915 
	C380.619080,484.433563 380.619080,482.034454 380.619080,479.220642 
	C369.977905,479.220642 359.713684,479.220642 348.832947,479.220642 
	C348.832947,460.240875 348.832947,441.688416 348.832947,423.152618 
	C345.604614,423.152618 343.012543,423.152618 340.284546,423.152618 
	C340.284546,444.670502 340.284546,465.890717 340.284546,487.612610 
	C347.557617,487.612610 354.528534,487.612610 362.499115,487.612915 
M776.414917,525.900757 
	C773.651184,530.409058 767.525818,532.982117 768.150269,540.095825 
	C771.804932,540.095825 775.130981,539.863037 778.411926,540.149109 
	C783.654968,540.606140 783.127380,544.670593 783.266968,548.375977 
	C783.407593,552.108154 781.567688,553.388367 778.126831,553.333618 
	C773.471558,553.259521 768.810486,553.205322 764.158997,553.358948 
	C760.870605,553.467468 759.831360,552.094543 759.951477,548.896057 
	C760.161316,543.308899 760.009949,537.708130 760.009949,531.493408 
	C754.072815,533.217957 748.390442,534.083618 743.495605,536.526978 
	C739.220764,538.660889 738.510437,543.767517 740.031494,547.984314 
	C741.012756,550.704651 743.631592,554.099060 746.139099,554.734497 
	C751.003357,555.967041 756.049927,556.191345 761.096130,557.533508 
	C767.460693,559.226135 774.646545,558.247986 781.424683,557.727173 
	C783.609802,557.559204 787.166016,555.472473 787.469482,553.789978 
	C789.410828,543.024170 789.482239,535.285034 776.662476,535.130249 
	C776.445496,535.127625 776.232910,534.764648 775.768799,534.343262 
	C778.572144,530.920898 781.361938,527.515015 784.341919,523.876953 
	C782.956909,522.800415 781.838867,521.931274 780.588989,520.959717 
	C779.222290,522.582031 778.049500,523.974121 776.414917,525.900757 
M336.627014,556.403748 
	C340.717957,552.976074 340.920868,548.380737 340.304962,543.638977 
	C339.461548,537.145935 336.024902,534.342773 329.498657,534.587769 
	C323.246124,534.822510 320.043030,538.186951 319.804443,544.798523 
	C319.750519,546.294006 319.904877,547.810120 319.716156,549.285156 
	C319.191162,553.387939 316.161713,553.326050 313.002289,553.367859 
	C309.534393,553.413635 308.881958,551.593384 308.956482,548.632446 
	C309.093811,543.175110 308.995667,537.711975 308.995667,531.470825 
	C305.378906,532.556396 302.322815,533.902466 299.141174,534.344360 
	C291.169617,535.451294 287.707123,539.728333 288.907990,547.653137 
	C289.842438,553.819702 294.707184,556.469910 302.219879,555.007690 
	C303.109924,554.834412 304.155945,555.012451 305.033386,555.310791 
	C307.419525,556.122131 309.706757,557.680115 312.118164,557.871460 
	C318.123688,558.347961 324.120056,555.796082 330.263885,557.972229 
	C331.840759,558.530884 334.057800,557.282166 336.627014,556.403748 
M801.983093,544.410828 
	C801.983093,541.479309 801.983093,538.547791 801.983093,535.856812 
	C797.831787,534.472473 796.916321,535.983887 797.012634,539.276001 
	C797.187744,545.264160 796.891235,551.267395 797.116272,557.252197 
	C797.278259,561.560791 796.446350,564.644775 790.577087,564.618591 
	C791.431519,566.429749 792.351501,568.371887 793.468140,568.492493 
	C798.854858,569.074219 801.294739,565.845093 802.400085,557.272949 
	C810.636475,559.593201 819.013000,555.496948 827.280518,557.840881 
	C827.955261,558.032166 828.843079,557.295898 829.650391,557.234741 
	C831.087891,557.125854 832.546814,557.297241 833.983765,557.184998 
	C837.462646,556.913086 843.756226,557.107483 843.951721,556.125549 
	C845.249329,549.608887 845.241638,542.832153 845.639282,536.138733 
	C845.645325,536.036499 845.404968,535.919617 844.802734,535.391052 
	C843.911438,535.456787 842.547241,535.557373 841.003357,535.671265 
	C841.003357,540.632385 841.214722,545.134521 840.870300,549.593750 
	C840.771179,550.877625 838.727478,553.206421 838.166443,553.041748 
	C836.271240,552.485535 834.005798,551.390076 833.093933,549.803894 
	C832.227295,548.296570 832.754211,545.905396 832.895691,543.919006 
	C833.162842,540.167542 831.694763,539.082764 827.963135,540.762756 
	C827.963135,543.436951 828.298584,546.303284 827.831421,549.032166 
	C827.570740,550.554565 826.201172,552.736450 824.934570,553.057861 
	C822.413330,553.697815 819.827820,552.814270 819.560791,549.492126 
	C819.347900,546.844482 819.442505,544.173035 819.345032,541.514221 
	C819.329041,541.079041 819.024841,540.654419 818.772888,540.021545 
	C817.464233,540.120300 816.215759,540.214478 814.720154,540.327332 
	C814.720154,543.598328 814.961365,546.615417 814.609131,549.561584 
	C814.454407,550.855164 813.318787,552.772400 812.238220,553.093811 
	C805.239319,555.175537 802.006897,552.610962 801.983093,544.410828 
M728.031250,433.526978 
	C728.031250,451.407928 728.031250,469.288879 728.031250,487.294098 
	C731.253479,487.294098 733.827576,487.294098 736.620911,487.294098 
	C736.620911,465.784210 736.620911,444.592499 736.620911,423.242981 
	C733.685913,423.242981 731.004883,423.242981 728.031372,423.242981 
	C728.031372,426.597931 728.031372,429.568665 728.031250,433.526978 
M572.160400,546.444580 
	C572.160400,542.835327 572.160400,539.226074 572.160400,535.784973 
	C568.595032,534.703369 567.160889,535.547241 567.338074,538.858154 
	C567.506836,542.011658 567.217529,545.191223 567.417114,548.341125 
	C567.641541,551.882507 566.501404,553.673706 562.661987,553.345703 
	C559.285400,553.057251 555.729675,553.443359 555.959106,548.296814 
	C556.142761,544.178284 555.996155,540.045044 555.996155,535.648071 
	C554.192139,535.648071 552.828125,535.648071 551.069519,535.648071 
	C551.069519,539.781433 550.814575,543.600098 551.135559,547.369690 
	C551.517029,551.850403 550.039612,553.476501 545.345032,553.468140 
	C540.793640,553.459961 539.727234,551.862366 539.874634,547.612488 
	C540.178711,538.846130 539.966187,530.061829 539.966187,521.137207 
	C538.051758,521.137207 536.660095,521.137207 535.001831,521.137207 
	C535.001831,531.680725 534.791138,541.977295 535.194275,552.249878 
	C535.267639,554.119080 537.685486,557.251221 539.304199,557.445984 
	C543.820740,557.989136 548.485474,557.282166 553.092896,557.100525 
	C554.388794,557.049438 555.830078,556.740112 556.965332,557.174622 
	C566.788513,560.934448 572.147156,557.536316 572.160400,546.444580 
M683.921631,553.309265 
	C680.465515,552.883057 678.781189,553.940186 680.322266,557.997803 
	C687.389893,557.997803 694.506287,558.068298 701.620483,557.975464 
	C707.300659,557.901306 709.057190,556.118042 709.089355,550.459717 
	C709.142212,541.148315 709.094177,531.836243 709.062866,522.524536 
	C709.061279,522.060303 708.814575,521.596863 708.590271,520.811829 
	C707.203308,520.971741 705.843689,521.128479 704.277466,521.309082 
	C704.277466,529.859558 704.280029,537.991516 704.276733,546.123535 
	C704.273560,553.850098 704.237549,553.878845 695.994385,552.844666 
	C695.994385,544.993835 695.994385,537.078857 695.994385,528.835876 
	C694.061707,528.835876 692.560547,528.835876 690.656616,528.835876 
	C690.656616,537.156067 690.656616,545.082947 690.656616,553.309204 
	C688.437439,553.309204 686.621216,553.309204 683.921631,553.309265 
M593.894043,567.709717 
	C595.367188,565.116882 597.730347,562.649780 598.118286,559.903687 
	C598.810608,555.003113 598.403931,549.931885 598.285583,544.936035 
	C598.126465,538.219482 594.882385,534.773132 588.739746,534.541870 
	C582.514648,534.307617 578.552856,537.846130 577.777710,544.332825 
	C576.824158,552.312439 579.257874,556.658081 585.482788,557.685730 
	C588.047424,558.109253 590.688171,558.071960 593.646912,558.267578 
	C592.949280,567.084351 585.582642,562.385071 580.515625,565.414490 
	C582.213196,566.712952 583.397888,568.356506 584.723999,568.479980 
	C587.490662,568.737488 590.331970,568.191711 593.894043,567.709717 
M526.428223,535.293457 
	C525.446716,536.416016 523.746155,537.463013 523.618835,538.675293 
	C523.239014,542.291321 523.783325,546.012207 523.314209,549.607056 
	C523.138794,550.951782 521.209045,553.060547 520.002197,553.114929 
	C512.705933,553.443787 505.380035,553.442810 498.083405,553.117554 
	C496.860901,553.062988 494.913086,551.004028 494.722137,549.667969 
	C494.238007,546.280518 494.561340,542.777649 494.561340,539.161011 
	C492.610535,539.161011 491.201019,539.161011 489.452545,539.161011 
	C489.452545,543.393738 489.400055,547.360168 489.466492,551.324707 
	C489.541290,555.785522 491.886719,558.008423 496.348389,558.005310 
	C504.822662,557.999329 513.301575,558.145081 521.767700,557.880554 
	C523.693237,557.820435 527.164978,556.440247 527.221130,555.505310 
	C527.622986,548.816284 527.325073,542.085266 526.428223,535.293457 
M465.864349,556.647156 
	C467.249054,557.171753 468.633728,557.696289 470.288757,558.323303 
	C470.288757,545.244263 470.288757,533.198853 470.288757,521.104614 
	C468.632141,521.104614 467.359070,521.104614 465.826935,521.104614 
	C465.826935,532.819641 465.826935,544.294983 465.864349,556.647156 
M716.127625,528.591675 
	C716.127014,537.088135 716.248535,545.587219 716.071228,554.079956 
	C715.989868,557.978943 717.605225,558.598083 720.874634,557.521973 
	C720.874634,545.263245 720.874634,533.181946 720.874634,520.768005 
	C719.156616,520.965332 717.772339,521.124390 716.127686,521.313354 
	C716.127686,523.663696 716.127686,525.642334 716.127625,528.591675 
M691.660156,566.620850 
	C692.156128,561.248596 697.354126,566.876465 699.217407,562.678040 
	C697.106262,562.153015 695.135742,561.105042 693.303223,561.307434 
	C686.688049,562.038025 690.112305,568.673340 686.171326,572.542419 
	C691.431824,572.269043 695.509705,573.783264 699.410461,571.427673 
	C696.486877,569.907166 694.123596,568.678040 691.660156,566.620850 
M404.969971,525.102600 
	C404.152374,526.636353 403.334778,528.170044 402.178131,530.339783 
	C404.640137,530.460938 405.774780,530.570740 406.907898,530.556641 
	C407.949951,530.543762 409.017273,530.203125 410.026886,530.343018 
	C414.858124,531.012390 415.350372,530.401611 413.756683,525.094971 
	C411.184814,525.094971 408.539612,525.094971 404.969971,525.102600 
M629.517151,525.094910 
	C628.757812,526.391724 627.998474,527.688599 627.239075,528.985413 
	C628.719238,529.659973 630.199402,530.334473 631.679565,531.008972 
	C632.142090,530.477112 632.604614,529.945190 633.067139,529.413269 
	C632.149536,527.973694 631.231873,526.534119 629.517151,525.094910 
M829.412720,525.978943 
	C827.290405,524.715271 825.038635,523.863037 824.288696,527.177734 
	C824.074463,528.124634 825.429993,530.233032 826.414734,530.494507 
	C829.442505,531.298462 829.974121,529.222412 829.412720,525.978943 
M294.052002,528.054932 
	C295.440552,528.054932 296.829102,528.054932 298.446472,528.054932 
	C298.268219,526.028381 298.142303,524.597046 298.028046,523.297974 
	C293.667419,522.143677 292.519775,523.892822 294.052002,528.054932 
M625.842896,529.916077 
	C625.842896,528.370483 625.842896,526.824890 625.842896,525.027161 
	C623.892822,525.154297 622.497925,525.245178 621.063843,525.338623 
	C621.063843,527.239868 621.063843,528.794556 621.063843,530.622803 
	C622.670288,530.546204 623.949402,530.485229 625.842896,529.916077 
M384.701813,525.393372 
	C383.289642,525.393372 381.877472,525.393372 380.408142,525.393372 
	C380.408142,527.447754 380.408142,529.145020 380.408142,531.780945 
	C383.328888,530.146423 385.602234,528.874146 387.899933,527.588257 
	C386.914612,526.933472 386.112946,526.400696 384.701813,525.393372 
M550.317993,562.582947 
	C549.201416,563.167114 547.733093,563.501770 547.083618,564.417297 
	C546.596863,565.103455 547.163940,566.537292 547.287354,567.925354 
	C549.031067,567.814087 550.432373,567.724731 552.407715,567.598694 
	C551.900574,565.666687 551.509094,564.175049 550.317993,562.582947 
M831.119324,525.756714 
	C831.119324,527.296814 831.119324,528.836914 831.119324,530.377014 
	C831.621094,530.693115 832.122803,531.009155 832.624573,531.325256 
	C833.765015,530.178101 835.637085,529.179016 835.904968,527.855225 
	C836.630493,524.270081 833.763794,525.155945 831.119324,525.756714 
M750.856323,526.988220 
	C752.326599,527.510803 753.796875,528.033386 755.697266,528.708923 
	C755.697266,526.346008 755.697266,524.932861 755.697266,523.351929 
	C753.190613,523.018921 750.405701,521.723389 750.856323,526.988220 
M748.468445,523.105652 
	C747.057678,523.105652 745.646973,523.105652 743.923889,523.105652 
	C744.106995,525.177063 744.230835,526.577759 744.377136,528.232361 
	C746.157654,528.135254 747.571899,528.058105 749.107178,527.974365 
	C749.107178,526.357727 749.107178,525.065125 748.468445,523.105652 
M300.703400,523.123291 
	C300.450195,524.744934 300.196991,526.366516 299.882965,528.377930 
	C302.069366,528.164795 303.463562,528.028870 304.883972,527.890442 
	C305.108459,525.058289 305.715546,522.353333 300.703400,523.123291 
M827.831238,520.585754 
	C827.305176,524.933350 829.796875,524.393494 832.612427,523.616455 
	C832.612427,522.101562 832.612427,520.725281 832.612427,518.736938 
	C830.827393,519.096985 829.377014,519.389526 827.831238,520.585754 
z"/>
<path fill="#284D5C" opacity="1.000000" stroke="none" 
	d="
M659.820923,287.180786 
	C637.580383,257.113739 615.551086,227.334000 593.521851,197.554260 
	C593.203491,197.681824 592.885071,197.809372 592.566711,197.936935 
	C592.566711,229.343750 592.566711,260.750580 592.566711,292.559204 
	C577.630127,292.559204 563.124146,292.559204 548.379517,292.559204 
	C548.379517,240.517624 548.379517,188.598465 548.379517,136.424973 
	C548.924011,136.264511 549.519958,135.936462 550.116577,135.935287 
	C566.943970,135.902237 583.773193,135.793564 600.596497,136.053787 
	C602.407654,136.081802 604.690430,137.907745 605.902649,139.534424 
	C624.705200,164.766281 643.366150,190.103607 662.063110,215.414154 
	C663.146973,216.881439 664.258118,218.328522 665.583679,220.086151 
	C677.176453,204.290146 688.599426,188.732941 700.014160,173.169724 
	C708.382874,161.759476 716.700684,150.311371 725.158081,138.967285 
	C726.134155,137.658035 727.850403,136.044998 729.239807,136.029297 
	C746.871155,135.830414 764.505554,135.898407 782.432739,135.898407 
	C782.432739,188.331039 782.432739,240.381912 782.432739,292.698547 
	C767.801392,292.698547 753.364502,292.698547 738.440430,292.698547 
	C738.440430,261.216461 738.440430,229.653580 738.440430,198.090698 
	C738.057251,197.925446 737.674133,197.760193 737.290955,197.594940 
	C713.493958,230.013123 689.696960,262.431305 665.720947,295.093353 
	C663.609192,292.262726 661.820740,289.865387 659.820923,287.180786 
z"/>
<path fill="#284D5C" opacity="1.000000" stroke="none" 
	d="
M235.284576,246.838928 
	C207.517868,233.116211 180.068451,219.611328 152.707413,205.929703 
	C147.669846,203.410721 142.709656,200.552917 138.200195,197.197723 
	C126.427338,188.438248 122.232056,174.815231 126.490128,160.760452 
	C130.717422,146.807236 143.013550,136.782181 157.156097,136.096741 
	C163.972763,135.766388 170.814117,135.903641 177.644318,135.901413 
	C219.633362,135.887695 261.622406,135.894653 303.611450,135.894714 
	C305.395294,135.894714 307.179138,135.894699 309.154663,135.894699 
	C309.154663,150.380707 309.154663,164.321609 309.154663,178.662842 
	C268.913025,178.662842 228.817902,178.662842 188.722778,178.662842 
	C188.606445,179.039246 188.490112,179.415665 188.373779,179.792068 
	C228.966446,198.907303 269.559113,218.022522 310.777802,237.432556 
	C308.626404,241.562485 306.624023,245.476837 304.558899,249.357834 
	C297.373688,262.861420 290.243805,276.395966 282.859009,289.789795 
	C282.042084,291.271484 279.724548,292.825317 278.098083,292.830536 
	C228.444901,292.989777 178.791122,292.960236 129.137421,292.948578 
	C128.341171,292.948395 127.544968,292.806122 126.504227,292.706848 
	C126.504227,278.721222 126.504227,264.950531 126.504227,250.592194 
	C164.202438,250.592194 201.915436,250.592194 239.628433,250.592194 
	C239.764755,250.180511 239.901077,249.768845 240.037399,249.357162 
	C238.569046,248.570068 237.100677,247.782990 235.284576,246.838928 
z"/>
<path fill="#284C5C" opacity="1.000000" stroke="none" 
	d="
M449.123840,136.192108 
	C449.991638,137.086212 451.118530,137.839935 451.690063,138.894592 
	C479.017242,189.319061 506.297211,239.769119 533.570435,290.222809 
	C533.874634,290.785614 534.020935,291.433807 534.400940,292.484680 
	C533.140381,292.664642 532.106445,292.938873 531.071899,292.940887 
	C516.747559,292.968903 502.422516,292.888153 488.099426,293.023132 
	C485.421509,293.048370 483.591888,292.462036 482.719635,289.830292 
	C482.669312,289.678558 482.527161,289.559509 482.442749,289.416412 
	C479.321472,284.124542 477.390717,276.642639 472.761810,274.128815 
	C467.711304,271.386047 460.161469,273.129791 453.700806,273.119263 
	C425.218628,273.072845 396.736389,273.098999 368.254150,273.098907 
	C366.627136,273.098907 365.000122,273.098938 362.310272,273.098938 
	C365.498077,269.085236 368.117340,265.774445 370.750397,262.474701 
	C376.668701,255.057877 382.442932,247.516678 388.627014,240.328232 
	C390.094391,238.622498 392.933655,237.212479 395.161285,237.184036 
	C414.306854,236.939606 433.456940,237.043655 453.685272,237.043655 
	C442.367310,215.888657 431.367249,195.327881 420.298462,174.159546 
	C424.344696,168.338928 428.505646,163.161438 432.563232,157.904144 
	C438.124542,150.698532 443.607391,143.432343 449.123840,136.192108 
z"/>
<path fill="#65A60E" opacity="1.000000" stroke="none" 
	d="
M448.655640,136.078171 
	C443.607391,143.432343 438.124542,150.698532 432.563232,157.904144 
	C428.505646,163.161438 424.344696,168.338928 420.111664,173.880554 
	C404.855011,192.939789 389.676056,211.637924 374.586487,230.407913 
	C343.962952,268.500763 313.387756,306.632477 282.228058,345.029724 
	C281.514496,345.676453 281.365479,346.041626 281.216492,346.406799 
	C280.956085,346.845978 280.695679,347.285156 279.904419,347.980652 
	C278.650909,349.296265 277.928314,350.355530 277.205688,351.414795 
	C276.952057,351.856323 276.698456,352.297821 275.868286,352.895172 
	C274.296173,353.227783 273.300629,353.404572 271.981598,353.638794 
	C273.017090,350.578430 273.872040,348.051636 274.726990,345.524811 
	C274.726990,345.524811 274.760284,345.215790 275.114868,344.948608 
	C275.565826,344.320587 275.662140,343.959686 275.758484,343.598816 
	C275.758484,343.598816 275.811493,343.255249 276.172791,342.978882 
	C276.624268,342.347778 276.714417,341.993011 276.804565,341.638214 
	C276.804565,341.638214 276.837372,341.283051 277.247314,340.999390 
	C278.046265,339.755768 278.435303,338.795807 278.824371,337.835846 
	C278.824371,337.835846 278.954437,337.946350 279.217285,337.803040 
	C280.556274,335.272858 281.632385,332.885925 282.708496,330.499023 
	C282.708496,330.499023 282.742798,330.200897 283.098907,329.940796 
	C283.556946,329.318604 283.658875,328.956573 283.760803,328.594513 
	C283.760803,328.594513 283.805237,328.258759 284.265259,328.075226 
	C285.424225,326.204681 286.123108,324.517700 286.822021,322.830688 
	C286.822021,322.830688 286.932007,322.935730 287.176727,322.772827 
	C288.860626,319.593231 290.299774,316.576508 291.738922,313.559784 
	C291.738922,313.559784 291.789459,313.231964 292.154541,312.961731 
	C292.606720,312.327881 292.693817,311.964233 292.780945,311.600586 
	C292.780945,311.600586 292.813354,311.260712 293.225708,310.987457 
	C294.026367,309.749847 294.414703,308.785492 294.803040,307.821136 
	C294.803009,307.821136 294.931946,307.932190 295.175903,307.768494 
	C296.515045,305.234344 297.610260,302.863831 298.705475,300.493347 
	C309.420746,280.191162 320.091705,259.865479 330.861359,239.592163 
	C348.505341,206.378448 366.265106,173.226028 383.810059,139.960236 
	C385.458008,136.835663 387.264740,135.770721 390.717407,135.804245 
	C409.872803,135.990402 429.030518,135.936157 448.655640,136.078171 
z"/>
<path fill="#2A4E5D" opacity="1.000000" stroke="none" 
	d="
M829.999329,292.966064 
	C821.201416,292.965881 812.903381,292.965881 804.324463,292.965881 
	C804.324463,240.524368 804.324463,188.468460 804.324463,136.150696 
	C818.886963,136.150696 833.317566,136.150696 848.159485,136.150696 
	C848.159485,188.173386 848.159485,240.208328 848.159485,292.966248 
	C842.323425,292.966248 836.411316,292.966248 829.999329,292.966064 
z"/>
<path fill="#30515F" opacity="1.000000" stroke="none" 
	d="
M704.311646,464.734344 
	C704.312378,450.644196 704.312378,437.017914 704.312378,423.128540 
	C707.041138,423.128540 709.306213,423.128540 711.932373,423.128540 
	C711.932373,444.478241 711.932373,465.830475 711.932373,487.128571 
	C706.547607,488.711029 703.359314,486.997925 700.586731,482.097076 
	C693.545410,469.650757 685.853394,457.572357 678.407166,445.355591 
	C677.487854,443.847290 676.478943,442.393555 674.561035,441.069061 
	C674.561035,456.354004 674.561035,471.638947 674.561035,487.259216 
	C671.493652,487.259216 669.101318,487.259216 666.391235,487.259216 
	C666.391235,465.901978 666.391235,444.680939 666.391235,423.317444 
	C671.699219,421.801422 675.105103,423.211243 677.995911,428.329987 
	C685.519836,441.652496 693.678223,454.616699 701.586975,467.721741 
	C702.153198,468.659851 702.747192,469.581207 704.310852,470.358246 
	C704.310852,468.638214 704.310852,466.918213 704.311646,464.734344 
z"/>
<path fill="#67A511" opacity="1.000000" stroke="none" 
	d="
M442.673462,72.673431 
	C446.848114,68.357964 450.772858,64.292580 455.570801,59.322685 
	C455.570801,78.805092 455.570801,96.951836 455.570801,115.515610 
	C437.501862,115.515610 419.285309,115.515610 399.876892,115.515610 
	C414.389404,100.987572 428.406464,86.955544 442.673462,72.673431 
z"/>
<path fill="#2F505D" opacity="1.000000" stroke="none" 
	d="
M672.220825,335.117859 
	C672.221069,332.657990 672.221069,330.682037 672.221069,328.339325 
	C674.921326,328.339325 677.314819,328.339325 680.138367,328.339325 
	C680.138367,349.603333 680.138367,370.942200 680.138367,392.249420 
	C674.761169,393.927521 671.505371,392.416046 668.689880,387.459473 
	C661.302856,374.454773 653.292114,361.804108 645.512695,349.022858 
	C644.762756,347.790649 643.893127,346.631256 642.330444,344.340820 
	C642.330444,361.087158 642.330444,376.591248 642.330444,392.444336 
	C639.429688,392.444336 637.043213,392.444336 634.340454,392.444336 
	C634.340454,371.134094 634.340454,349.908752 634.340454,328.441345 
	C639.129089,327.209473 642.629333,327.679626 645.578674,332.890747 
	C653.751465,347.330566 662.603638,361.385864 672.220642,375.514801 
	C672.220642,362.210449 672.220642,348.906067 672.220825,335.117859 
z"/>
<path fill="#2F515E" opacity="1.000000" stroke="none" 
	d="
M561.013184,422.863098 
	C565.674805,422.863403 569.840576,422.809540 574.004395,422.874908 
	C584.000549,423.031799 591.038879,428.087219 593.111511,436.526062 
	C595.427490,445.955536 591.883972,453.627808 582.955994,458.538269 
	C582.525391,458.775085 582.139954,459.093811 581.382690,459.616577 
	C585.897522,468.601562 590.416138,477.594116 594.952332,486.621704 
	C587.530090,488.983337 585.960266,488.339600 582.801819,481.907990 
	C580.017151,476.237427 576.925293,470.696869 574.502930,464.876709 
	C572.959900,461.169342 570.822632,459.821167 566.941711,460.265503 
	C564.155029,460.584595 561.302429,460.327576 557.916992,460.327576 
	C557.916992,469.329956 557.916992,478.070129 557.916992,487.201752 
	C554.802307,487.201752 552.241760,487.201752 549.317688,487.201752 
	C549.317688,466.020142 549.317688,444.800812 549.317688,422.863129 
	C553.000061,422.863129 556.758179,422.863129 561.013184,422.863098 
M584.889771,439.859528 
	C584.094849,434.727203 580.887451,431.663391 575.963867,431.263306 
	C570.070312,430.784424 564.108215,431.150269 557.976196,431.150269 
	C557.976196,438.212280 557.976196,444.923950 557.976196,452.088623 
	C563.332825,452.088623 568.446899,452.209747 573.552979,452.060211 
	C581.206299,451.836090 584.514954,448.440430 584.889771,439.859528 
z"/>
<path fill="#2F515E" opacity="1.000000" stroke="none" 
	d="
M486.800781,392.802521 
	C479.196533,392.802765 472.067108,392.802765 464.587646,392.802765 
	C464.587646,371.170349 464.587646,349.950836 464.587646,327.534546 
	C474.918335,328.035980 485.385345,327.768829 495.586853,329.286407 
	C503.632721,330.483337 508.110962,337.100433 508.851501,344.921448 
	C509.724823,354.144745 510.134827,363.561676 509.295227,372.762299 
	C508.037903,386.541077 501.245941,392.130646 486.800781,392.802521 
M501.034576,366.331726 
	C500.985229,361.001404 501.151093,355.658386 500.837158,350.343719 
	C500.340424,341.934998 496.315674,337.142578 488.671783,336.353790 
	C483.621857,335.832672 478.474518,336.255127 473.386963,336.255127 
	C473.386963,352.524811 473.386963,368.395935 473.386963,384.235107 
	C495.160858,385.746582 500.505981,382.409241 501.034576,366.331726 
z"/>
<path fill="#2F515E" opacity="1.000000" stroke="none" 
	d="
M840.097046,331.764648 
	C845.172729,335.677277 847.719604,340.767914 847.978088,346.574158 
	C848.383301,355.675903 848.653992,364.849823 847.970154,373.916901 
	C847.137085,384.963623 840.937744,391.381561 829.936218,392.398956 
	C821.238647,393.203278 812.407166,392.560730 803.338989,392.560730 
	C803.338989,371.103607 803.338989,349.888763 803.338989,327.788208 
	C815.496033,329.325989 828.084167,324.892059 840.097046,331.764648 
M839.867737,368.149719 
	C839.599060,361.013428 839.693420,353.838745 838.943970,346.753326 
	C838.368164,341.309875 834.892273,337.484711 829.276428,336.808899 
	C823.596313,336.125366 817.828308,336.172455 812.133545,335.901123 
	C812.133545,352.538544 812.133545,368.298401 812.133545,384.480408 
	C815.875366,384.480408 819.336609,384.487732 822.797913,384.479095 
	C834.597412,384.449646 838.433411,380.960388 839.867737,368.149719 
z"/>
<path fill="#30515F" opacity="1.000000" stroke="none" 
	d="
M650.098450,475.980469 
	C644.358154,486.491943 635.405701,490.391602 622.985779,488.090973 
	C613.355286,486.307037 606.737793,479.310638 605.860657,468.178528 
	C605.147278,459.125427 605.137024,449.888947 606.074707,440.864685 
	C607.379272,428.308838 616.259949,421.713806 629.819824,421.870728 
	C642.198914,422.013977 650.866943,429.376862 652.020081,441.595245 
	C653.093628,452.970825 654.163208,464.459442 650.098450,475.980469 
M619.365662,477.242615 
	C629.232544,483.841522 641.479614,480.033936 642.721375,469.275116 
	C643.777283,460.127747 643.539368,450.716370 642.786621,441.510681 
	C642.169373,433.960968 636.584412,430.024780 628.941284,430.005798 
	C621.297302,429.986816 615.831482,433.907990 615.121643,441.494781 
	C614.322571,450.035400 614.408386,458.714783 614.888672,467.290161 
	C615.067993,470.493042 617.445251,473.572815 619.365662,477.242615 
z"/>
<path fill="#17505D" opacity="1.000000" stroke="none" 
	d="
M458.834473,531.045898 
	C458.834534,536.535217 458.838501,541.533142 458.833771,546.531128 
	C458.823486,557.335022 453.974487,560.930908 443.657684,557.335449 
	C441.265594,556.501831 439.411011,555.951721 437.337006,557.539307 
	C437.208496,557.637695 437.033020,557.740540 436.882935,557.735474 
	C428.579346,557.457336 420.275574,557.180725 411.973724,556.856873 
	C411.235229,556.828064 410.363678,556.117126 409.799133,556.341125 
	C402.192780,559.358337 394.499420,557.847839 386.750946,557.198303 
	C382.844452,556.870850 378.838226,557.955383 374.883423,557.905090 
	C372.150940,557.870361 369.432281,556.968750 366.700714,556.493164 
	C365.980865,556.367798 365.220306,556.264160 364.505249,556.356995 
	C358.673492,557.114014 352.848145,557.920166 347.179810,558.689697 
	C345.258392,554.641479 346.001129,553.109314 349.634552,553.308289 
	C351.129364,553.390198 352.632599,553.325195 354.131958,553.316528 
	C361.439453,553.274292 361.823334,552.763855 361.765106,545.753845 
	C361.726898,541.155457 359.655212,538.974426 355.117737,539.006470 
	C353.296906,539.019348 351.475952,539.008606 349.279907,539.008606 
	C349.279907,537.469849 349.279907,536.133606 349.279907,534.610840 
	C352.381165,534.610840 355.368317,534.344971 358.291016,534.666016 
	C364.427948,535.339905 366.622772,537.951172 366.801575,544.177551 
	C367.073608,553.651794 367.885101,554.294983 377.763458,552.866028 
	C374.116486,544.450073 374.320587,539.855042 378.484253,536.640198 
	C382.190613,533.778442 389.974670,533.863464 393.526978,536.804626 
	C397.439850,540.044189 397.628174,545.033447 394.124634,552.663269 
	C394.359985,552.842041 394.592499,553.170166 394.832764,553.175964 
	C409.069855,553.519287 406.203064,554.310669 406.698700,541.806274 
	C406.798187,539.295715 404.455109,534.398071 411.295532,535.622192 
	C411.295532,539.842529 411.416779,543.966309 411.262787,548.079834 
	C411.095367,552.552124 413.835999,553.214783 417.380829,553.347046 
	C421.063171,553.484253 422.479889,551.667236 422.507721,548.232849 
	C422.522461,546.418091 422.562439,544.582703 422.837830,542.794678 
	C423.683380,537.304138 427.157684,534.490723 432.893646,534.494751 
	C438.821991,534.498901 442.341827,537.486694 443.097137,543.216797 
	C443.270630,544.533203 443.332397,545.869568 443.363068,547.198608 
	C443.488922,552.653015 446.217957,554.848511 451.341980,553.062073 
	C452.481415,552.664917 453.619110,550.412903 453.651245,548.989868 
	C453.857941,539.838989 453.756836,530.681213 453.756836,521.135376 
	C455.352966,521.055420 456.749207,520.985535 458.834442,520.881104 
	C458.834442,524.341309 458.834442,527.447937 458.834473,531.045898 
M438.358398,547.344238 
	C438.130981,540.849670 435.742249,537.956116 431.478119,539.239746 
	C427.458069,540.450073 427.248260,543.953857 427.334686,547.295105 
	C427.416443,550.456238 428.477081,553.322632 432.210632,553.663818 
	C436.014465,554.011414 438.055084,552.000061 438.358398,547.344238 
M385.608948,552.035767 
	C387.487671,550.365295 390.340546,548.990967 390.964325,546.939026 
	C391.558838,544.983337 390.497894,541.476440 388.917999,540.223450 
	C387.535461,539.127014 383.522552,539.330566 382.304474,540.567627 
	C380.869995,542.024536 380.578613,545.317322 380.967621,547.614807 
	C381.236328,549.201721 383.499390,550.450867 385.608948,552.035767 
z"/>
<path fill="#2F515E" opacity="1.000000" stroke="none" 
	d="
M286.732025,479.821899 
	C286.732574,460.717926 286.732574,442.091370 286.732574,423.163940 
	C300.448059,423.163940 313.818604,423.163940 327.489197,423.163940 
	C327.489197,425.623169 327.489197,427.882782 327.489197,430.783722 
	C316.970428,430.783722 306.429962,430.783722 295.624573,430.783722 
	C295.624573,437.635956 295.624573,443.849823 295.624573,450.627563 
	C304.811462,450.627563 313.719208,450.627563 322.778320,450.627563 
	C322.778320,453.618744 322.778320,456.044678 322.778320,458.943115 
	C313.635040,458.943115 304.713501,458.943115 295.563934,458.943115 
	C295.563934,465.828217 295.563934,472.240601 295.563934,479.245575 
	C304.019714,479.245575 312.300354,479.245239 320.581024,479.245667 
	C328.287262,479.246033 328.287262,479.246399 327.400085,487.259338 
	C314.057709,487.259338 300.673279,487.259338 286.731476,487.259338 
	C286.731476,484.870636 286.731476,482.584991 286.732025,479.821899 
z"/>
<path fill="#31525F" opacity="1.000000" stroke="none" 
	d="
M391.018524,456.000000 
	C391.018494,444.865204 391.018494,434.230408 391.018494,423.228546 
	C404.698120,423.228546 418.071930,423.228546 431.744080,423.228546 
	C431.744080,425.642609 431.744080,428.035767 431.744080,430.914429 
	C421.214752,430.914429 410.805511,430.914429 400.118896,430.914429 
	C400.118896,437.630432 400.118896,443.869049 400.118896,450.680420 
	C409.110382,450.680420 417.993591,450.680420 427.073181,450.680420 
	C427.073181,453.674957 427.073181,456.098999 427.073181,458.871643 
	C418.068634,458.871643 409.302429,458.871643 400.186493,458.871643 
	C400.186493,465.608765 400.186493,472.013611 400.186493,479.152252 
	C410.529541,479.152252 421.062012,479.152252 431.805603,479.152252 
	C431.805603,482.157806 431.805603,484.437195 431.805603,487.165070 
	C418.445740,487.165070 405.089020,487.165070 391.018555,487.165070 
	C391.018555,476.985657 391.018555,466.742828 391.018524,456.000000 
z"/>
<path fill="#2C4E5B" opacity="1.000000" stroke="none" 
	d="
M783.806213,392.790771 
	C772.374329,392.790955 761.417053,392.790955 750.167725,392.790955 
	C750.167725,371.101471 750.167725,349.858215 750.167725,328.294159 
	C763.378174,328.294159 776.626709,328.294159 790.234375,328.294159 
	C790.234375,330.613464 790.234375,333.012787 790.234375,336.001282 
	C779.789490,336.001282 769.395752,336.001282 758.747803,336.001282 
	C758.747803,342.831787 758.747803,349.091400 758.747803,355.914429 
	C767.772705,355.914429 776.679810,355.914429 785.815613,355.914429 
	C785.815613,358.745605 785.815613,361.019775 785.815613,363.866150 
	C776.931213,363.866150 768.029724,363.866150 758.809692,363.866150 
	C758.809692,370.834412 758.809692,377.241119 758.809692,384.313965 
	C769.166016,384.313965 779.549927,384.313965 790.255249,384.313965 
	C790.255249,387.361328 790.255249,389.752930 790.255249,392.790558 
	C788.145264,392.790558 786.213013,392.790558 783.806213,392.790771 
z"/>
<path fill="#2F515E" opacity="1.000000" stroke="none" 
	d="
M814.815857,456.334778 
	C806.732910,451.862885 803.904053,446.538269 805.136353,437.616699 
	C806.198547,429.925934 810.704712,424.823608 818.201782,422.899994 
	C828.205322,420.333282 837.562500,422.032410 846.616455,428.223145 
	C845.138977,430.693756 843.833374,432.876862 843.087097,434.124725 
	C836.586060,432.636078 830.910339,430.696686 825.108093,430.181030 
	C818.841125,429.624084 814.648132,433.373535 813.952454,438.558899 
	C813.220764,444.013611 815.980286,447.673004 822.593933,449.395599 
	C826.603455,450.439911 830.787109,450.806366 834.811523,451.804077 
	C844.711914,454.258514 848.956177,459.170135 849.298340,468.189453 
	C849.662842,477.797974 845.193604,484.515625 835.756287,487.199829 
	C823.628052,490.649384 812.565491,488.112762 802.064636,480.088013 
	C804.090454,477.627563 805.721130,475.647064 806.868225,474.253876 
	C812.868347,476.381104 818.210144,478.512115 823.707947,480.104309 
	C825.829956,480.718872 828.339478,480.340912 830.614685,480.013672 
	C836.558411,479.158783 840.382141,475.166748 840.577698,469.927429 
	C840.757935,465.098694 837.677002,461.569397 831.679688,460.116821 
	C826.201843,458.790009 820.666870,457.698517 814.815857,456.334778 
z"/>
<path fill="#30525F" opacity="1.000000" stroke="none" 
	d="
M602.211731,329.516907 
	C609.669678,350.547791 616.972046,371.199005 624.283142,391.875092 
	C616.548035,394.044800 616.021301,393.779510 613.572937,386.809540 
	C610.385254,377.734833 610.385254,377.734833 600.612366,377.733765 
	C599.945923,377.733704 599.279236,377.722839 598.612976,377.734802 
	C594.123230,377.815338 588.693726,376.393494 585.423096,378.432648 
	C582.487854,380.262665 581.757019,385.841064 580.358398,389.871552 
	C578.413940,395.475342 574.249207,391.444763 570.143127,393.646332 
	C572.798096,386.131195 574.867676,380.219330 576.974243,374.320740 
	C581.893860,360.545502 586.829529,346.775970 591.762451,333.005463 
	C593.825806,327.245697 596.057190,326.410431 602.211731,329.516907 
M597.504150,342.083527 
	C594.160645,351.129456 590.817139,360.175354 587.332703,369.602600 
	C594.541870,369.602600 600.639465,369.602600 607.502869,369.602600 
	C604.255615,360.335449 601.152100,351.478516 597.504150,342.083527 
z"/>
<path fill="#30515F" opacity="1.000000" stroke="none" 
	d="
M434.218842,334.671997 
	C441.031281,353.967072 447.722534,372.883514 454.423004,391.826019 
	C446.739685,394.040100 446.147064,393.756622 443.868713,387.167480 
	C440.605591,377.730255 440.605560,377.730286 430.700012,377.730164 
	C430.200256,377.730164 429.689026,377.800140 429.202454,377.720123 
	C419.226593,376.078766 412.069519,378.138641 410.276459,389.907227 
	C409.450989,395.324951 404.496948,392.030518 400.617828,392.721222 
	C404.621887,381.416901 408.364410,370.805176 412.140228,360.205292 
	C415.207550,351.594421 418.298615,342.991943 421.409454,334.396698 
	C423.918091,327.465271 423.938171,327.472534 431.926758,328.328400 
	C432.626251,330.250366 433.361938,332.271851 434.218842,334.671997 
M433.337067,357.138977 
	C431.562500,352.072205 429.787964,347.005432 427.647369,340.893433 
	C424.087372,351.132355 420.947937,360.161682 417.698212,369.508240 
	C424.525879,369.508240 430.717346,369.508240 437.483673,369.508240 
	C436.119415,365.336975 434.895355,361.594360 433.337067,357.138977 
z"/>
<path fill="#2F515E" opacity="1.000000" stroke="none" 
	d="
M730.521362,343.844452 
	C726.975098,337.687225 722.210815,334.437164 715.198425,335.119934 
	C708.477112,335.774384 703.495544,341.041870 703.098572,348.776794 
	C702.723755,356.080414 702.801819,363.422546 703.023743,370.737274 
	C703.252075,378.260101 706.992065,383.530945 712.585876,384.993866 
	C719.875549,386.900238 725.062561,384.773285 729.618347,378.019745 
	C729.977295,377.487671 730.385559,376.988953 730.991211,376.180786 
	C733.394348,377.348206 735.699036,378.467773 737.949890,379.561218 
	C734.386169,389.394348 726.503662,394.243408 715.450684,393.790405 
	C705.225220,393.371307 696.712952,387.760101 695.447632,377.630646 
	C694.023376,366.228607 694.019043,354.369141 695.468567,342.972137 
	C696.748047,332.912445 705.215576,327.295319 715.039490,326.979218 
	C726.923340,326.596863 734.327148,331.054199 738.020264,341.261963 
	C735.653870,342.174744 733.253113,343.100830 730.521362,343.844452 
z"/>
<path fill="#2F515E" opacity="1.000000" stroke="none" 
	d="
M470.149719,479.813477 
	C473.530762,477.167419 476.509033,474.620148 480.202728,471.461029 
	C481.590057,472.134033 483.888214,473.248901 487.191040,474.851166 
	C484.670288,478.115814 482.913269,481.406097 480.267426,483.646851 
	C467.021454,494.864746 445.839478,487.747559 443.320892,470.658478 
	C441.836578,460.587097 442.255188,450.043976 443.250122,439.852814 
	C444.224579,429.871002 451.645813,423.343597 460.850647,422.059509 
	C471.996613,420.504639 481.057648,424.597015 485.483887,433.221008 
	C485.845367,433.925293 485.992859,434.739441 486.387177,435.957855 
	C484.077881,437.088013 481.899078,438.154297 479.424835,439.365173 
	C478.351318,437.890076 477.427307,436.575592 476.457550,435.295746 
	C472.677612,430.307037 467.480652,429.116791 461.730011,430.340546 
	C456.309540,431.494049 452.633270,435.243042 452.109558,440.591461 
	C451.301727,448.841064 450.904541,457.217560 451.361572,465.483398 
	C452.000854,477.045959 458.130341,481.481079 470.149719,479.813477 
z"/>
<path fill="#2F515E" opacity="1.000000" stroke="none" 
	d="
M775.559143,430.057068 
	C765.228088,430.051849 760.456055,433.741150 759.564148,443.600739 
	C758.863281,451.348785 759.014404,459.244690 759.584717,467.016388 
	C760.120728,474.319946 764.018616,478.766144 769.405457,479.986115 
	C776.516296,481.596497 781.249207,479.677124 785.733459,473.361755 
	C786.205566,472.696838 786.667847,472.024902 787.343811,471.056763 
	C789.622437,472.153900 791.801697,473.203217 794.593262,474.547333 
	C793.498413,476.613098 792.773621,478.618469 791.529602,480.220673 
	C785.106628,488.493164 776.308899,489.911591 766.794556,487.898987 
	C757.549255,485.943298 752.143005,479.293610 751.257202,470.451782 
	C750.237000,460.269073 750.230225,449.815918 751.313782,439.643219 
	C752.230347,431.038361 757.570068,424.564148 766.637024,422.592743 
	C775.557495,420.653168 783.941467,421.655914 790.508484,428.862091 
	C795.961487,434.845856 795.416626,436.446442 788.861755,438.463043 
	C783.992371,435.301453 779.981445,432.697235 775.559143,430.057068 
z"/>
<path fill="#2F505D" opacity="1.000000" stroke="none" 
	d="
M537.655273,390.440613 
	C530.657837,369.627045 523.811035,349.187286 516.953430,328.715302 
	C525.048767,326.896851 525.375061,327.065002 527.789734,334.363678 
	C532.471252,348.514587 537.138977,362.670044 542.258545,378.174530 
	C543.723999,373.964081 544.819336,371.027771 545.770752,368.045502 
	C549.302002,356.976654 552.767822,345.886993 556.293518,334.816345 
	C558.640991,327.445251 558.667847,327.453796 567.295227,328.392242 
	C565.916687,332.529358 564.575684,336.544830 563.240356,340.562195 
	C557.847229,356.788239 552.478577,373.022430 547.049255,389.236298 
	C545.542419,393.736115 541.424255,394.394684 537.655273,390.440613 
z"/>
<path fill="#1A525E" opacity="1.000000" stroke="none" 
	d="
M669.229248,545.915894 
	C669.229248,537.463440 669.229248,529.501648 669.229248,521.210388 
	C670.976746,521.210388 672.336182,521.210388 674.065796,521.210388 
	C674.065796,531.630127 674.104614,541.920898 674.044800,552.211060 
	C674.023865,555.818115 671.943726,557.924438 668.433228,557.847290 
	C665.028076,557.772522 661.635620,557.043030 658.242615,556.565369 
	C657.632935,556.479492 657.029480,556.020752 656.453796,556.072876 
	C649.766418,556.677612 642.856140,558.717468 636.460205,557.649658 
	C628.642883,556.344727 621.061157,559.550964 614.032959,557.546570 
	C612.461121,560.783447 611.416870,564.354187 609.211731,566.931824 
	C607.927612,568.432861 604.783447,568.342773 602.047974,569.084778 
	C602.047974,567.008118 602.047974,565.738586 602.047974,564.096497 
	C607.366089,564.568787 607.851196,561.212219 607.754395,557.069458 
	C607.591492,550.099854 607.709778,543.123657 607.709778,535.964600 
	C611.028992,534.666809 612.996704,534.875793 612.817993,538.995056 
	C612.695435,541.819458 613.047791,544.680847 612.743958,547.477478 
	C612.143250,553.007751 615.631592,553.122070 619.603455,553.372253 
	C623.942932,553.645508 624.581909,551.354797 624.393372,547.861267 
	C624.232178,544.873657 624.501404,541.861938 624.319397,538.876770 
	C624.116333,535.547119 625.610046,534.766174 629.157349,535.714233 
	C629.157349,539.696533 629.308533,543.808838 629.114319,547.904785 
	C628.924683,551.901550 630.986145,553.266479 634.554077,553.273987 
	C639.048035,553.283386 643.542053,553.298828 648.036011,553.290771 
	C651.010559,553.285461 653.261780,552.630249 653.047302,548.820129 
	C652.834473,545.040161 653.834229,540.647583 648.180420,540.155090 
	C644.908752,539.870117 641.591980,540.103394 637.566650,540.103394 
	C638.657410,531.197205 646.466309,527.619141 650.085022,520.782288 
	C651.625977,521.890320 652.750671,522.699097 654.265198,523.788086 
	C651.282532,527.445740 648.503906,530.853210 645.294250,534.789246 
	C646.560974,535.023010 647.261230,535.191284 647.971497,535.277405 
	C656.209473,536.275696 658.204224,538.439270 658.239746,546.833984 
	C658.253174,550.011108 658.163269,552.813354 662.491089,553.258423 
	C668.481201,553.874512 669.187622,553.305359 669.229248,545.915894 
z"/>
<path fill="#2E4F5C" opacity="1.000000" stroke="none" 
	d="
M520.078064,483.705444 
	C519.355774,490.858978 514.666199,486.277832 511.295959,487.762390 
	C511.295959,468.548645 511.295959,450.022278 511.295959,431.125916 
	C504.806396,431.125916 498.872040,431.125916 492.537048,431.125916 
	C492.537048,428.380707 492.537048,426.001923 492.537048,423.231964 
	C507.797211,423.231964 523.166260,423.231964 538.807617,423.231964 
	C538.807617,425.637604 538.807617,428.039124 538.807617,430.951904 
	C532.665283,430.951904 526.596924,430.951904 520.078430,430.951904 
	C520.078430,448.714813 520.078430,465.978241 520.078064,483.705444 
z"/>
<path fill="#325360" opacity="1.000000" stroke="none" 
	d="
M361.999268,487.612762 
	C354.528534,487.612610 347.557617,487.612610 340.284546,487.612610 
	C340.284546,465.890717 340.284546,444.670502 340.284546,423.152618 
	C343.012543,423.152618 345.604614,423.152618 348.832947,423.152618 
	C348.832947,441.688416 348.832947,460.240875 348.832947,479.220642 
	C359.713684,479.220642 369.977905,479.220642 380.619080,479.220642 
	C380.619080,482.034454 380.619080,484.433563 380.619080,487.612915 
	C374.677948,487.612915 368.588531,487.612915 361.999268,487.612762 
z"/>
<path fill="#154E5B" opacity="1.000000" stroke="none" 
	d="
M776.645813,525.633545 
	C778.049500,523.974121 779.222290,522.582031 780.588989,520.959717 
	C781.838867,521.931274 782.956909,522.800415 784.341919,523.876953 
	C781.361938,527.515015 778.572144,530.920898 775.768799,534.343262 
	C776.232910,534.764648 776.445496,535.127625 776.662476,535.130249 
	C789.482239,535.285034 789.410828,543.024170 787.469482,553.789978 
	C787.166016,555.472473 783.609802,557.559204 781.424683,557.727173 
	C774.646545,558.247986 767.460693,559.226135 761.096130,557.533508 
	C756.049927,556.191345 751.003357,555.967041 746.139099,554.734497 
	C743.631592,554.099060 741.012756,550.704651 740.031494,547.984314 
	C738.510437,543.767517 739.220764,538.660889 743.495605,536.526978 
	C748.390442,534.083618 754.072815,533.217957 760.009949,531.493408 
	C760.009949,537.708130 760.161316,543.308899 759.951477,548.896057 
	C759.831360,552.094543 760.870605,553.467468 764.158997,553.358948 
	C768.810486,553.205322 773.471558,553.259521 778.126831,553.333618 
	C781.567688,553.388367 783.407593,552.108154 783.266968,548.375977 
	C783.127380,544.670593 783.654968,540.606140 778.411926,540.149109 
	C775.130981,539.863037 771.804932,540.095825 768.150269,540.095825 
	C767.525818,532.982117 773.651184,530.409058 776.645813,525.633545 
M745.564453,540.966248 
	C745.714050,543.866638 745.405945,546.917908 746.282959,549.578491 
	C746.557922,550.412659 750.467712,551.059875 751.945679,550.299561 
	C756.686646,547.860718 754.546570,543.240234 755.043030,538.356323 
	C751.607788,539.122986 748.848145,539.738892 745.564453,540.966248 
z"/>
<path fill="#154E5B" opacity="1.000000" stroke="none" 
	d="
M336.303894,556.633728 
	C334.057800,557.282166 331.840759,558.530884 330.263885,557.972229 
	C324.120056,555.796082 318.123688,558.347961 312.118164,557.871460 
	C309.706757,557.680115 307.419525,556.122131 305.033386,555.310791 
	C304.155945,555.012451 303.109924,554.834412 302.219879,555.007690 
	C294.707184,556.469910 289.842438,553.819702 288.907990,547.653137 
	C287.707123,539.728333 291.169617,535.451294 299.141174,534.344360 
	C302.322815,533.902466 305.378906,532.556396 308.995667,531.470825 
	C308.995667,537.711975 309.093811,543.175110 308.956482,548.632446 
	C308.881958,551.593384 309.534393,553.413635 313.002289,553.367859 
	C316.161713,553.326050 319.191162,553.387939 319.716156,549.285156 
	C319.904877,547.810120 319.750519,546.294006 319.804443,544.798523 
	C320.043030,538.186951 323.246124,534.822510 329.498657,534.587769 
	C336.024902,534.342773 339.461548,537.145935 340.304962,543.638977 
	C340.920868,548.380737 340.717957,552.976074 336.303894,556.633728 
M334.413818,541.228455 
	C332.198212,540.663513 329.272614,538.970825 327.940674,539.809326 
	C326.137390,540.944702 324.732697,544.003784 324.683319,546.270874 
	C324.634064,548.532288 325.889648,551.535339 327.610779,552.957703 
	C330.306854,555.185730 334.529785,553.237610 335.172211,549.638794 
	C335.615265,547.156738 334.981049,544.482300 334.413818,541.228455 
M293.756470,546.277832 
	C294.269989,550.395020 296.912018,551.566711 300.490143,550.664429 
	C304.074066,549.760742 305.002380,545.620972 303.401245,539.102539 
	C295.364014,538.785217 294.361786,539.440674 293.756470,546.277832 
z"/>
<path fill="#18505D" opacity="1.000000" stroke="none" 
	d="
M801.983093,544.877563 
	C802.006897,552.610962 805.239319,555.175537 812.238220,553.093811 
	C813.318787,552.772400 814.454407,550.855164 814.609131,549.561584 
	C814.961365,546.615417 814.720154,543.598328 814.720154,540.327332 
	C816.215759,540.214478 817.464233,540.120300 818.772888,540.021545 
	C819.024841,540.654419 819.329041,541.079041 819.345032,541.514221 
	C819.442505,544.173035 819.347900,546.844482 819.560791,549.492126 
	C819.827820,552.814270 822.413330,553.697815 824.934570,553.057861 
	C826.201172,552.736450 827.570740,550.554565 827.831421,549.032166 
	C828.298584,546.303284 827.963135,543.436951 827.963135,540.762756 
	C831.694763,539.082764 833.162842,540.167542 832.895691,543.919006 
	C832.754211,545.905396 832.227295,548.296570 833.093933,549.803894 
	C834.005798,551.390076 836.271240,552.485535 838.166443,553.041748 
	C838.727478,553.206421 840.771179,550.877625 840.870300,549.593750 
	C841.214722,545.134521 841.003357,540.632385 841.003357,535.671265 
	C842.547241,535.557373 843.911438,535.456787 844.802734,535.391052 
	C845.404968,535.919617 845.645325,536.036499 845.639282,536.138733 
	C845.241638,542.832153 845.249329,549.608887 843.951721,556.125549 
	C843.756226,557.107483 837.462646,556.913086 833.983765,557.184998 
	C832.546814,557.297241 831.087891,557.125854 829.650391,557.234741 
	C828.843079,557.295898 827.955261,558.032166 827.280518,557.840881 
	C819.013000,555.496948 810.636475,559.593201 802.400085,557.272949 
	C801.294739,565.845093 798.854858,569.074219 793.468140,568.492493 
	C792.351501,568.371887 791.431519,566.429749 790.577087,564.618591 
	C796.446350,564.644775 797.278259,561.560791 797.116272,557.252197 
	C796.891235,551.267395 797.187744,545.264160 797.012634,539.276001 
	C796.916321,535.983887 797.831787,534.472473 801.983093,535.856812 
	C801.983093,538.547791 801.983093,541.479309 801.983093,544.877563 
z"/>
<path fill="#325360" opacity="1.000000" stroke="none" 
	d="
M728.031311,433.033203 
	C728.031372,429.568665 728.031372,426.597931 728.031372,423.242981 
	C731.004883,423.242981 733.685913,423.242981 736.620911,423.242981 
	C736.620911,444.592499 736.620911,465.784210 736.620911,487.294098 
	C733.827576,487.294098 731.253479,487.294098 728.031250,487.294098 
	C728.031250,469.288879 728.031250,451.407928 728.031311,433.033203 
z"/>
<path fill="#18505D" opacity="1.000000" stroke="none" 
	d="
M572.159912,546.924622 
	C572.147156,557.536316 566.788513,560.934448 556.965332,557.174622 
	C555.830078,556.740112 554.388794,557.049438 553.092896,557.100525 
	C548.485474,557.282166 543.820740,557.989136 539.304199,557.445984 
	C537.685486,557.251221 535.267639,554.119080 535.194275,552.249878 
	C534.791138,541.977295 535.001831,531.680725 535.001831,521.137207 
	C536.660095,521.137207 538.051758,521.137207 539.966187,521.137207 
	C539.966187,530.061829 540.178711,538.846130 539.874634,547.612488 
	C539.727234,551.862366 540.793640,553.459961 545.345032,553.468140 
	C550.039612,553.476501 551.517029,551.850403 551.135559,547.369690 
	C550.814575,543.600098 551.069519,539.781433 551.069519,535.648071 
	C552.828125,535.648071 554.192139,535.648071 555.996155,535.648071 
	C555.996155,540.045044 556.142761,544.178284 555.959106,548.296814 
	C555.729675,553.443359 559.285400,553.057251 562.661987,553.345703 
	C566.501404,553.673706 567.641541,551.882507 567.417114,548.341125 
	C567.217529,545.191223 567.506836,542.011658 567.338074,538.858154 
	C567.160889,535.547241 568.595032,534.703369 572.160400,535.784973 
	C572.160400,539.226074 572.160400,542.835327 572.159912,546.924622 
z"/>
<path fill="#1A525E" opacity="1.000000" stroke="none" 
	d="
M684.363281,553.309204 
	C686.621216,553.309204 688.437439,553.309204 690.656616,553.309204 
	C690.656616,545.082947 690.656616,537.156067 690.656616,528.835876 
	C692.560547,528.835876 694.061707,528.835876 695.994385,528.835876 
	C695.994385,537.078857 695.994385,544.993835 695.994385,552.844666 
	C704.237549,553.878845 704.273560,553.850098 704.276733,546.123535 
	C704.280029,537.991516 704.277466,529.859558 704.277466,521.309082 
	C705.843689,521.128479 707.203308,520.971741 708.590271,520.811829 
	C708.814575,521.596863 709.061279,522.060303 709.062866,522.524536 
	C709.094177,531.836243 709.142212,541.148315 709.089355,550.459717 
	C709.057190,556.118042 707.300659,557.901306 701.620483,557.975464 
	C694.506287,558.068298 687.389893,557.997803 680.322266,557.997803 
	C678.781189,553.940186 680.465515,552.883057 684.363281,553.309204 
z"/>
<path fill="#154E5B" opacity="1.000000" stroke="none" 
	d="
M593.518311,567.842834 
	C590.331970,568.191711 587.490662,568.737488 584.723999,568.479980 
	C583.397888,568.356506 582.213196,566.712952 580.515625,565.414490 
	C585.582642,562.385071 592.949280,567.084351 593.646912,558.267578 
	C590.688171,558.071960 588.047424,558.109253 585.482788,557.685730 
	C579.257874,556.658081 576.824158,552.312439 577.777710,544.332825 
	C578.552856,537.846130 582.514648,534.307617 588.739746,534.541870 
	C594.882385,534.773132 598.126465,538.219482 598.285583,544.936035 
	C598.403931,549.931885 598.810608,555.003113 598.118286,559.903687 
	C597.730347,562.649780 595.367188,565.116882 593.518311,567.842834 
M593.696533,551.290527 
	C593.546631,548.644531 593.952576,545.789978 593.063965,543.421082 
	C592.400635,541.652771 590.108765,539.449890 588.462524,539.382324 
	C586.728760,539.311340 583.714661,541.285706 583.372437,542.833435 
	C582.753479,545.633423 582.635803,550.204224 584.266113,551.427917 
	C586.379578,553.014282 590.407898,552.049377 593.696533,551.290527 
z"/>
<path fill="#1E5561" opacity="1.000000" stroke="none" 
	d="
M526.838928,535.330505 
	C527.325073,542.085266 527.622986,548.816284 527.221130,555.505310 
	C527.164978,556.440247 523.693237,557.820435 521.767700,557.880554 
	C513.301575,558.145081 504.822662,557.999329 496.348389,558.005310 
	C491.886719,558.008423 489.541290,555.785522 489.466492,551.324707 
	C489.400055,547.360168 489.452545,543.393738 489.452545,539.161011 
	C491.201019,539.161011 492.610535,539.161011 494.561340,539.161011 
	C494.561340,542.777649 494.238007,546.280518 494.722137,549.667969 
	C494.913086,551.004028 496.860901,553.062988 498.083405,553.117554 
	C505.380035,553.442810 512.705933,553.443787 520.002197,553.114929 
	C521.209045,553.060547 523.138794,550.951782 523.314209,549.607056 
	C523.783325,546.012207 523.239014,542.291321 523.618835,538.675293 
	C523.746155,537.463013 525.446716,536.416016 526.838928,535.330505 
z"/>
<path fill="#1E5561" opacity="1.000000" stroke="none" 
	d="
M465.845642,556.208740 
	C465.826935,544.294983 465.826935,532.819641 465.826935,521.104614 
	C467.359070,521.104614 468.632141,521.104614 470.288757,521.104614 
	C470.288757,533.198853 470.288757,545.244263 470.288757,558.323303 
	C468.633728,557.696289 467.249054,557.171753 465.845642,556.208740 
z"/>
<path fill="#154E5B" opacity="1.000000" stroke="none" 
	d="
M716.127686,528.106323 
	C716.127686,525.642334 716.127686,523.663696 716.127686,521.313354 
	C717.772339,521.124390 719.156616,520.965332 720.874634,520.768005 
	C720.874634,533.181946 720.874634,545.263245 720.874634,557.521973 
	C717.605225,558.598083 715.989868,557.978943 716.071228,554.079956 
	C716.248535,545.587219 716.127014,537.088135 716.127686,528.106323 
z"/>
<path fill="#315E67" opacity="1.000000" stroke="none" 
	d="
M691.710205,567.034912 
	C694.123596,568.678040 696.486877,569.907166 699.410461,571.427673 
	C695.509705,573.783264 691.431824,572.269043 686.171326,572.542419 
	C690.112305,568.673340 686.688049,562.038025 693.303223,561.307434 
	C695.135742,561.105042 697.106262,562.153015 699.217407,562.678040 
	C697.354126,566.876465 692.156128,561.248596 691.710205,567.034912 
z"/>
<path fill="#315E67" opacity="1.000000" stroke="none" 
	d="
M405.432190,525.098755 
	C408.539612,525.094971 411.184814,525.094971 413.756683,525.094971 
	C415.350372,530.401611 414.858124,531.012390 410.026886,530.343018 
	C409.017273,530.203125 407.949951,530.543762 406.907898,530.556641 
	C405.774780,530.570740 404.640137,530.460938 402.178131,530.339783 
	C403.334778,528.170044 404.152374,526.636353 405.432190,525.098755 
z"/>
<path fill="#315E67" opacity="1.000000" stroke="none" 
	d="
M510.048248,532.829346 
	C509.264984,533.070190 508.487183,533.488220 507.697235,533.512512 
	C506.331818,533.554504 504.378998,533.855164 503.741516,533.120178 
	C503.008179,532.274719 502.840637,529.783569 503.505066,529.165100 
	C504.389557,528.341980 506.312592,528.532959 507.792999,528.509583 
	C508.278076,528.501953 508.774048,529.184265 509.659698,529.718750 
	C510.052338,530.867371 510.050293,531.848389 510.048248,532.829346 
z"/>
<path fill="#315E67" opacity="1.000000" stroke="none" 
	d="
M629.915710,525.094727 
	C631.231873,526.534119 632.149536,527.973694 633.067139,529.413269 
	C632.604614,529.945190 632.142090,530.477112 631.679565,531.008972 
	C630.199402,530.334473 628.719238,529.659973 627.239075,528.985413 
	C627.998474,527.688599 628.757812,526.391724 629.915710,525.094727 
z"/>
<path fill="#315E67" opacity="1.000000" stroke="none" 
	d="
M829.536133,526.357849 
	C829.974121,529.222412 829.442505,531.298462 826.414734,530.494507 
	C825.429993,530.233032 824.074463,528.124634 824.288696,527.177734 
	C825.038635,523.863037 827.290405,524.715271 829.536133,526.357849 
z"/>
<path fill="#7DAA40" opacity="1.000000" stroke="none" 
	d="
M274.440125,345.723572 
	C273.872040,348.051636 273.017090,350.578430 271.981598,353.638794 
	C273.300629,353.404572 274.296173,353.227783 275.644226,353.023956 
	C274.741730,355.861542 272.940826,357.708160 268.692749,356.285034 
	C270.566284,352.729553 272.359772,349.325958 274.440125,345.723572 
z"/>
<path fill="#1E5561" opacity="1.000000" stroke="none" 
	d="
M293.739532,527.841187 
	C292.519775,523.892822 293.667419,522.143677 298.028046,523.297974 
	C298.142303,524.597046 298.268219,526.028381 298.446472,528.054932 
	C296.829102,528.054932 295.440552,528.054932 293.739532,527.841187 
z"/>
<path fill="#315E67" opacity="1.000000" stroke="none" 
	d="
M625.535645,530.170166 
	C623.949402,530.485229 622.670288,530.546204 621.063843,530.622803 
	C621.063843,528.794556 621.063843,527.239868 621.063843,525.338623 
	C622.497925,525.245178 623.892822,525.154297 625.842896,525.027161 
	C625.842896,526.824890 625.842896,528.370483 625.535645,530.170166 
z"/>
<path fill="#1A525E" opacity="1.000000" stroke="none" 
	d="
M385.006531,525.630615 
	C386.112946,526.400696 386.914612,526.933472 387.899933,527.588257 
	C385.602234,528.874146 383.328888,530.146423 380.408142,531.780945 
	C380.408142,529.145020 380.408142,527.447754 380.408142,525.393372 
	C381.877472,525.393372 383.289642,525.393372 385.006531,525.630615 
z"/>
<path fill="#18505D" opacity="1.000000" stroke="none" 
	d="
M550.717773,562.633179 
	C551.509094,564.175049 551.900574,565.666687 552.407715,567.598694 
	C550.432373,567.724731 549.031067,567.814087 547.287354,567.925354 
	C547.163940,566.537292 546.596863,565.103455 547.083618,564.417297 
	C547.733093,563.501770 549.201416,563.167114 550.717773,562.633179 
z"/>
<path fill="#30525F" opacity="1.000000" stroke="none" 
	d="
M510.203217,533.194580 
	C510.050293,531.848389 510.052338,530.867371 510.049561,529.518494 
	C511.463898,528.902527 512.883057,528.654480 514.302185,528.406433 
	C514.579529,530.041260 514.856812,531.676025 515.230835,533.881287 
	C513.132385,533.742859 511.745270,533.651367 510.203217,533.194580 
z"/>
<path fill="#315E67" opacity="1.000000" stroke="none" 
	d="
M831.435425,525.464050 
	C833.763794,525.155945 836.630493,524.270081 835.904968,527.855225 
	C835.637085,529.179016 833.765015,530.178101 832.624573,531.325256 
	C832.122803,531.009155 831.621094,530.693115 831.119324,530.377014 
	C831.119324,528.836914 831.119324,527.296814 831.435425,525.464050 
z"/>
<path fill="#18505D" opacity="1.000000" stroke="none" 
	d="
M750.840576,526.570618 
	C750.405701,521.723389 753.190613,523.018921 755.697266,523.351929 
	C755.697266,524.932861 755.697266,526.346008 755.697266,528.708923 
	C753.796875,528.033386 752.326599,527.510803 750.840576,526.570618 
z"/>
<path fill="#154E5B" opacity="1.000000" stroke="none" 
	d="
M748.787842,523.439087 
	C749.107178,525.065125 749.107178,526.357727 749.107178,527.974365 
	C747.571899,528.058105 746.157654,528.135254 744.377136,528.232361 
	C744.230835,526.577759 744.106995,525.177063 743.923889,523.105652 
	C745.646973,523.105652 747.057678,523.105652 748.787842,523.439087 
z"/>
<path fill="#154E5B" opacity="1.000000" stroke="none" 
	d="
M301.150940,523.072754 
	C305.715546,522.353333 305.108459,525.058289 304.883972,527.890442 
	C303.463562,528.028870 302.069366,528.164795 299.882965,528.377930 
	C300.196991,526.366516 300.450195,524.744934 301.150940,523.072754 
z"/>
<path fill="#154E5B" opacity="1.000000" stroke="none" 
	d="
M827.878906,520.133911 
	C829.377014,519.389526 830.827393,519.096985 832.612427,518.736938 
	C832.612427,520.725281 832.612427,522.101562 832.612427,523.616455 
	C829.796875,524.393494 827.305176,524.933350 827.878906,520.133911 
z"/>
<path fill="#7DAA40" opacity="1.000000" stroke="none" 
	d="
M291.448669,313.744873 
	C290.299774,316.576508 288.860626,319.593231 287.105286,322.746765 
	C288.245575,319.899017 289.701965,316.914459 291.448669,313.744873 
z"/>
<path fill="#7DAA40" opacity="1.000000" stroke="none" 
	d="
M282.425476,330.699799 
	C281.632385,332.885925 280.556274,335.272858 279.138763,337.769684 
	C279.912384,335.553253 281.027435,333.226929 282.425476,330.699799 
z"/>
<path fill="#7DAA40" opacity="1.000000" stroke="none" 
	d="
M298.421753,300.694153 
	C297.610260,302.863831 296.515045,305.234344 295.096436,307.738190 
	C295.894653,305.546021 297.016357,303.220490 298.421753,300.694153 
z"/>
<path fill="#7DAA40" opacity="1.000000" stroke="none" 
	d="
M286.539551,323.007935 
	C286.123108,324.517700 285.424225,326.204681 284.379822,327.950500 
	C284.775238,326.401245 285.516174,324.793182 286.539551,323.007935 
z"/>
<path fill="#7DAA40" opacity="1.000000" stroke="none" 
	d="
M277.504608,351.280334 
	C277.928314,350.355530 278.650909,349.296265 279.683502,348.115967 
	C279.263519,349.045227 278.533508,350.095551 277.504608,351.280334 
z"/>
<path fill="#7DAA40" opacity="1.000000" stroke="none" 
	d="
M294.530579,307.983582 
	C294.414703,308.785492 294.026367,309.749847 293.338928,310.859741 
	C293.445923,310.052185 293.852020,309.099121 294.530579,307.983582 
z"/>
<path fill="#7DAA40" opacity="1.000000" stroke="none" 
	d="
M278.553680,337.999084 
	C278.435303,338.795807 278.046265,339.755768 277.360382,340.861481 
	C277.470032,340.058929 277.876495,339.110657 278.553680,337.999084 
z"/>
<path fill="#7DAA40" opacity="1.000000" stroke="none" 
	d="
M292.536438,311.754974 
	C292.693817,311.964233 292.606720,312.327881 292.273499,312.846222 
	C292.115570,312.637054 292.203766,312.273224 292.536438,311.754974 
z"/>
<path fill="#7DAA40" opacity="1.000000" stroke="none" 
	d="
M283.506683,328.742432 
	C283.658875,328.956573 283.556946,329.318604 283.208130,329.837891 
	C283.058350,329.626862 283.155457,329.258606 283.506683,328.742432 
z"/>
<path fill="#7DAA40" opacity="1.000000" stroke="none" 
	d="
M276.562378,341.786835 
	C276.714417,341.993011 276.624268,342.347778 276.292542,342.852905 
	C276.140656,342.647308 276.230408,342.291382 276.562378,341.786835 
z"/>
<path fill="#7DAA40" opacity="1.000000" stroke="none" 
	d="
M275.507324,343.747498 
	C275.662140,343.959686 275.565826,344.320587 275.224976,344.838989 
	C275.072388,344.629730 275.164276,344.262939 275.507324,343.747498 
z"/>
<path fill="#7DAA40" opacity="1.000000" stroke="none" 
	d="
M281.482574,346.280457 
	C281.365479,346.041626 281.514496,345.676453 281.956482,345.213867 
	C282.082520,345.462341 281.915588,345.808228 281.482574,346.280457 
z"/>
<path fill="#FBFCFD" opacity="1.000000" stroke="none" 
	d="
M584.927795,440.261566 
	C584.514954,448.440430 581.206299,451.836090 573.552979,452.060211 
	C568.446899,452.209747 563.332825,452.088623 557.976196,452.088623 
	C557.976196,444.923950 557.976196,438.212280 557.976196,431.150269 
	C564.108215,431.150269 570.070312,430.784424 575.963867,431.263306 
	C580.887451,431.663391 584.094849,434.727203 584.927795,440.261566 
z"/>
<path fill="#FBFCFD" opacity="1.000000" stroke="none" 
	d="
M501.001526,366.802856 
	C500.505981,382.409241 495.160858,385.746582 473.386963,384.235107 
	C473.386963,368.395935 473.386963,352.524811 473.386963,336.255127 
	C478.474518,336.255127 483.621857,335.832672 488.671783,336.353790 
	C496.315674,337.142578 500.340424,341.934998 500.837158,350.343719 
	C501.151093,355.658386 500.985229,361.001404 501.001526,366.802856 
z"/>
<path fill="#FAFCFC" opacity="1.000000" stroke="none" 
	d="
M839.817566,368.601990 
	C838.433411,380.960388 834.597412,384.449646 822.797913,384.479095 
	C819.336609,384.487732 815.875366,384.480408 812.133545,384.480408 
	C812.133545,368.298401 812.133545,352.538544 812.133545,335.901123 
	C817.828308,336.172455 823.596313,336.125366 829.276428,336.808899 
	C834.892273,337.484711 838.368164,341.309875 838.943970,346.753326 
	C839.693420,353.838745 839.599060,361.013428 839.817566,368.601990 
z"/>
<path fill="#FBFCFD" opacity="1.000000" stroke="none" 
	d="
M619.093018,476.975647 
	C617.445251,473.572815 615.067993,470.493042 614.888672,467.290161 
	C614.408386,458.714783 614.322571,450.035400 615.121643,441.494781 
	C615.831482,433.907990 621.297302,429.986816 628.941284,430.005798 
	C636.584412,430.024780 642.169373,433.960968 642.786621,441.510681 
	C643.539368,450.716370 643.777283,460.127747 642.721375,469.275116 
	C641.479614,480.033936 629.232544,483.841522 619.093018,476.975647 
z"/>
<path fill="#EDF6F7" opacity="1.000000" stroke="none" 
	d="
M438.349548,547.774536 
	C438.055084,552.000061 436.014465,554.011414 432.210632,553.663818 
	C428.477081,553.322632 427.416443,550.456238 427.334686,547.295105 
	C427.248260,543.953857 427.458069,540.450073 431.478119,539.239746 
	C435.742249,537.956116 438.130981,540.849670 438.349548,547.774536 
z"/>
<path fill="#EDF6F7" opacity="1.000000" stroke="none" 
	d="
M385.240082,551.943359 
	C383.499390,550.450867 381.236328,549.201721 380.967621,547.614807 
	C380.578613,545.317322 380.869995,542.024536 382.304474,540.567627 
	C383.522552,539.330566 387.535461,539.127014 388.917999,540.223450 
	C390.497894,541.476440 391.558838,544.983337 390.964325,546.939026 
	C390.340546,548.990967 387.487671,550.365295 385.240082,551.943359 
z"/>
<path fill="#F4F8F9" opacity="1.000000" stroke="none" 
	d="
M597.776367,342.352570 
	C601.152100,351.478516 604.255615,360.335449 607.502869,369.602600 
	C600.639465,369.602600 594.541870,369.602600 587.332703,369.602600 
	C590.817139,360.175354 594.160645,351.129456 597.776367,342.352570 
z"/>
<path fill="#F4F8F9" opacity="1.000000" stroke="none" 
	d="
M433.504211,357.495361 
	C434.895355,361.594360 436.119415,365.336975 437.483673,369.508240 
	C430.717346,369.508240 424.525879,369.508240 417.698212,369.508240 
	C420.947937,360.161682 424.087372,351.132355 427.647369,340.893433 
	C429.787964,347.005432 431.562500,352.072205 433.504211,357.495361 
z"/>
<path fill="#EDF6F7" opacity="1.000000" stroke="none" 
	d="
M745.826477,540.660522 
	C748.848145,539.738892 751.607788,539.122986 755.043030,538.356323 
	C754.546570,543.240234 756.686646,547.860718 751.945679,550.299561 
	C750.467712,551.059875 746.557922,550.412659 746.282959,549.578491 
	C745.405945,546.917908 745.714050,543.866638 745.826477,540.660522 
z"/>
<path fill="#EDF6F7" opacity="1.000000" stroke="none" 
	d="
M334.621033,541.561157 
	C334.981049,544.482300 335.615265,547.156738 335.172211,549.638794 
	C334.529785,553.237610 330.306854,555.185730 327.610779,552.957703 
	C325.889648,551.535339 324.634064,548.532288 324.683319,546.270874 
	C324.732697,544.003784 326.137390,540.944702 327.940674,539.809326 
	C329.272614,538.970825 332.198212,540.663513 334.621033,541.561157 
z"/>
<path fill="#F4F8F9" opacity="1.000000" stroke="none" 
	d="
M293.747437,545.849976 
	C294.361786,539.440674 295.364014,538.785217 303.401245,539.102539 
	C305.002380,545.620972 304.074066,549.760742 300.490143,550.664429 
	C296.912018,551.566711 294.269989,550.395020 293.747437,545.849976 
z"/>
<path fill="#EDF6F7" opacity="1.000000" stroke="none" 
	d="
M593.654236,551.736694 
	C590.407898,552.049377 586.379578,553.014282 584.266113,551.427917 
	C582.635803,550.204224 582.753479,545.633423 583.372437,542.833435 
	C583.714661,541.285706 586.728760,539.311340 588.462524,539.382324 
	C590.108765,539.449890 592.400635,541.652771 593.063965,543.421082 
	C593.952576,545.789978 593.546631,548.644531 593.654236,551.736694 
z"/>
</svg>